<?xml version="1.0" encoding="utf-8"?>
<!-- Generator: Adobe Illustrator 27.5.0, SVG Export Plug-In . SVG Version: 6.00 Build 0)  -->
<svg version="1.1" xmlns="http://www.w3.org/2000/svg" xmlns:xlink="http://www.w3.org/1999/xlink" x="0px" y="0px"
	 viewBox="0 0 500 500" style="enable-background:new 0 0 500 500;" xml:space="preserve">
<g id="BACKGROUND">
	<g>
		<g>
			<rect style="fill:#719FFF;" width="500" height="500"/>
		</g>
	</g>
</g>
<g id="OBJECTS">
	<g>
		<g>
			<path style="fill:#0E67AA;" d="M452.01,345.13l0.015-5.088L246.049,237.688c-4.131-2.63-9.39-2.714-13.603-0.217l-181.689,79.59
				l-0.321-0.25v12.733l0.003-0.005c0.005,0.548,0.075,1.097,0.212,1.632c0.389,1.52,1.311,2.927,2.805,3.88l202.918,129.298
				c4.131,2.633,9.375,2.728,13.589,0.229c29.462-17.471,145.381-86.213,178.911-106.097c2.269-1.345,3.288-3.719,3.135-6.034
				V345.13z"/>
			<path style="fill:#88B9FF;" d="M448.875,346.063c-33.531,19.883-149.45,88.625-178.913,106.096
				c-4.214,2.499-9.458,2.404-13.589-0.229L53.456,322.632c-4.115-2.622-4.018-8.664,0.18-11.152l178.811-106.014
				c4.213-2.498,9.472-2.414,13.603,0.217l202.973,129.245C453.138,337.549,453.073,343.573,448.875,346.063z"/>
		</g>
		<g>
			<g>
				<path style="fill:#76C1F4;" d="M350.95,250.186v77.654c-0.963-0.013-1.926-0.286-2.772-0.82c-0.013,0-0.039-0.013-0.052-0.026
					l-8.693-5.544l-44.103-28.109c-0.521-0.325-0.781-0.872-0.781-1.405v-75.468c0-0.547,0.273-1.106,0.82-1.432l0.208-0.13
					L350.95,250.186z"/>
				<path style="fill:#ABDDFF;" d="M384.97,232.168v75.468c0,0.547-0.26,1.093-0.781,1.405c-0.013,0.026-0.026,0.026-0.039,0.039
					l-30.324,18.005h-0.013c-0.885,0.52-1.874,0.781-2.863,0.755v-77.654l32.979-19.593l0.26,0.169
					C384.71,231.088,384.97,231.634,384.97,232.168z"/>
				<path style="fill:#95CEFC;" d="M384.146,233.616l-30.319,18.006c-1.765,1.046-3.969,1.011-5.699-0.092l-52.803-33.644
					c-1.054-0.671-1.029-2.218,0.045-2.856l30.319-18.017c1.766-1.047,3.97-1.012,5.702,0.091l52.801,33.655
					C385.246,231.432,385.221,232.979,384.146,233.616z"/>
				<path style="fill:#0F4B93;" d="M386.779,220.833v11.595c0.065,0.638-0.208,1.327-0.833,1.705l-31.326,18.591
					c-0.677,0.403-1.406,0.651-2.147,0.742c-0.507,0.078-1.015,0.078-1.522,0c-0.794-0.104-1.574-0.377-2.277-0.833l-55.138-35.136
					c-0.586-0.364-0.846-0.989-0.807-1.588l-0.013-0.013v-11.621l12.831,3.149l19.354-11.512c1.835-1.093,4.138-1.067,5.947,0.091
					l20.532,22.677l12.167,2.993L386.779,220.833z"/>
				<path style="fill:#326DCC;" d="M386.779,220.833v11.595c0.065,0.638-0.208,1.327-0.833,1.705l-31.326,18.591
					c-0.677,0.403-1.406,0.651-2.147,0.742h-1.522v-31.792h12.597L386.779,220.833z"/>
				<path style="fill:#95CEFC;" d="M385.94,222.399l-31.318,18.598c-1.843,1.093-4.144,1.056-5.951-0.096l-55.141-35.134
					c-1.1-0.701-1.075-2.316,0.047-2.982l31.318-18.609c1.844-1.094,4.146-1.057,5.954,0.095l55.139,35.145
					C387.089,220.118,387.063,221.734,385.94,222.399z"/>
				<path style="fill:#326DCC;" d="M353.032,212.825l-5.713,3.383l-6.299,3.735l-8.693,5.153c-1.614,0.963-3.644,0.937-5.231-0.078
					l-24.569-15.668l-5.765-3.683c-0.963-0.612-0.937-2.03,0.052-2.616l20.704-12.285c0.625-0.378,1.328-0.599,2.03-0.677
					c1.106-0.117,2.238,0.143,3.201,0.755l30.334,19.364C354.047,210.821,354.021,212.239,353.032,212.825z"/>
				<path style="fill:#0F4B93;" d="M353.032,212.825l-5.713,3.383l-6.299,3.735h-21.472V190.09c1.106-0.117,2.238,0.143,3.201,0.755
					l30.334,19.364C354.047,210.821,354.021,212.239,353.032,212.825z"/>
				<path style="fill:#1754AD;" d="M347.319,216.208l-14.992,8.888c-1.614,0.963-3.644,0.937-5.231-0.078l-24.569-15.668
					l14.991-8.901c1.614-0.963,3.644-0.924,5.232,0.091L347.319,216.208z"/>
			</g>
			<g>
				<path style="fill:#ABDDFF;" d="M345.223,202.977v23.661c0,2.652,3.836,4.802,8.567,4.802s8.567-2.15,8.567-4.802v-23.661
					H345.223z"/>
				<path style="fill:#1D97B7;" d="M362.357,202.977c0,2.652-3.836,4.802-8.567,4.802s-8.567-2.15-8.567-4.802
					c0-2.652,3.836-4.802,8.567-4.802S362.357,200.326,362.357,202.977z"/>
			</g>
			<g>
				<path style="fill:#D2EFFF;" d="M350.471,86.362v116.49c0,1.027,1.486,1.86,3.32,1.86c1.833,0,3.32-0.833,3.32-1.86V86.362
					H350.471z"/>
				<path style="fill:#1D97B7;" d="M357.11,86.362c0,1.028-1.486,1.861-3.32,1.861c-1.833,0-3.32-0.833-3.32-1.861
					c0-1.027,1.486-1.86,3.32-1.86C355.624,84.502,357.11,85.335,357.11,86.362z"/>
			</g>
			<g>
				<path style="fill:#ABDDFF;" d="M348.94,78.716v13.395c0,1.501,2.171,2.718,4.85,2.718s4.85-1.217,4.85-2.718V78.716H348.94z"/>
				<path style="fill:#1D97B7;" d="M358.64,78.716c0,1.501-2.171,2.718-4.85,2.718s-4.85-1.217-4.85-2.718
					c0-1.501,2.171-2.718,4.85-2.718S358.64,77.215,358.64,78.716z"/>
			</g>
			<g>
				<path style="fill:#ABDDFF;" d="M322.377,205.054l1.881,11.706l0.02,0c0.2,1.453,2.337,2.598,4.948,2.598
					c2.744,0,4.968-1.262,4.968-2.82l1.881-11.484H322.377z"/>
				<linearGradient id="SVGID_1_" gradientUnits="userSpaceOnUse" x1="322.3793" y1="205.306" x2="322.9004" y2="205.306">
					<stop  offset="0" style="stop-color:#9191DF"/>
					<stop  offset="0.0299" style="stop-color:#8B8BDA"/>
					<stop  offset="0.2143" style="stop-color:#6969BD"/>
					<stop  offset="0.4026" style="stop-color:#4F4EA7"/>
					<stop  offset="0.5941" style="stop-color:#3C3B98"/>
					<stop  offset="0.7907" style="stop-color:#31308E"/>
					<stop  offset="1" style="stop-color:#2D2C8B"/>
				</linearGradient>
				<path style="opacity:0.28;fill:url(#SVGID_1_);" d="M322.818,205.057c0.003,0.164,0.028,0.332,0.082,0.499l-0.521-0.499H322.818
					z"/>
				<g>
					<path style="fill:#D2EFFF;" d="M336.075,205.054c0,2.147-3.066,3.887-6.849,3.887c-3.783,0-6.849-1.74-6.849-3.887
						c0-2.147,3.066-3.887,6.849-3.887C333.008,201.167,336.075,202.907,336.075,205.054z"/>
					<path style="fill:#2D308C;" d="M329.226,208.053c-3.513,0-5.96-1.58-5.96-2.999c0-1.418,2.448-2.999,5.96-2.999
						c3.513,0,5.961,1.58,5.961,2.999C335.186,206.472,332.738,208.053,329.226,208.053z"/>
					
						<linearGradient id="SVGID_00000030488844605306189720000000815596653233658554_" gradientUnits="userSpaceOnUse" x1="334.7202" y1="205.0417" x2="323.5922" y2="205.0417">
						<stop  offset="0" style="stop-color:#9191DF"/>
						<stop  offset="0.0299" style="stop-color:#8B8BDA"/>
						<stop  offset="0.2143" style="stop-color:#6969BD"/>
						<stop  offset="0.4026" style="stop-color:#4F4EA7"/>
						<stop  offset="0.5941" style="stop-color:#3C3B98"/>
						<stop  offset="0.7907" style="stop-color:#31308E"/>
						<stop  offset="1" style="stop-color:#2D2C8B"/>
					</linearGradient>
					<path style="fill:url(#SVGID_00000030488844605306189720000000815596653233658554_);" d="M329.226,208.307
						c-3.513,0-5.96-1.721-5.96-3.265c0-1.544,2.448-3.265,5.96-3.265c3.513,0,5.961,1.721,5.961,3.265
						C335.186,206.586,332.738,208.307,329.226,208.307z"/>
					<path style="fill:#1D97B7;" d="M335.186,205.042c0,0.417-0.179,0.844-0.508,1.246c-0.888,1.097-2.888,2.018-5.454,2.018
						c-3.165,0-5.469-1.4-5.889-2.807c-0.048-0.153-0.069-0.307-0.069-0.457c0-1.543,2.449-3.264,5.958-3.264
						C332.737,201.778,335.186,203.499,335.186,205.042z"/>
					<path style="fill:#E8F2FF;" d="M334.89,205.992c-0.062,0.102-0.132,0.197-0.212,0.296c-0.888,1.097-2.888,2.018-5.454,2.018
						c-2.793,0-4.913-1.089-5.662-2.314c0.753-1.221,2.873-2.31,5.662-2.31C332.017,203.682,334.137,204.772,334.89,205.992z"/>
				</g>
			</g>
			<g>
				
					<line style="fill:none;stroke:#ABDDFF;stroke-width:1.5981;stroke-linecap:round;stroke-linejoin:round;stroke-miterlimit:10;" x1="340.219" y1="275.127" x2="340.219" y2="315.493"/>
				
					<line style="fill:none;stroke:#ABDDFF;stroke-width:1.5981;stroke-linecap:round;stroke-linejoin:round;stroke-miterlimit:10;" x1="330.635" y1="269.069" x2="330.635" y2="309.436"/>
				
					<line style="fill:none;stroke:#ABDDFF;stroke-width:1.5981;stroke-linecap:round;stroke-linejoin:round;stroke-miterlimit:10;" x1="321.052" y1="263.012" x2="321.052" y2="303.378"/>
				
					<line style="fill:none;stroke:#ABDDFF;stroke-width:1.5981;stroke-linecap:round;stroke-linejoin:round;stroke-miterlimit:10;" x1="311.469" y1="256.954" x2="311.469" y2="297.321"/>
				
					<line style="fill:none;stroke:#ABDDFF;stroke-width:1.5981;stroke-linecap:round;stroke-linejoin:round;stroke-miterlimit:10;" x1="301.885" y1="250.897" x2="301.885" y2="291.263"/>
			</g>
			<g>
				<g>
					<path style="fill:#D2EFFF;" d="M300.353,240.823v10.074c0,0.474,0.686,0.859,1.532,0.859s1.533-0.384,1.533-0.859v-10.074
						H300.353z"/>
					<path style="fill:#1D97B7;" d="M303.418,240.823c0,0.474-0.686,0.859-1.533,0.859s-1.532-0.385-1.532-0.859
						c0-0.474,0.686-0.859,1.532-0.859S303.418,240.349,303.418,240.823z"/>
				</g>
				<g>
					<path style="fill:#D2EFFF;" d="M309.936,246.915v10.074c0,0.474,0.686,0.859,1.533,0.859c0.846,0,1.532-0.385,1.532-0.859
						v-10.074H309.936z"/>
					<path style="fill:#1D97B7;" d="M313.001,246.915c0,0.474-0.686,0.859-1.532,0.859c-0.846,0-1.533-0.384-1.533-0.859
						c0-0.474,0.686-0.859,1.533-0.859C312.315,246.056,313.001,246.441,313.001,246.915z"/>
				</g>
				<g>
					<path style="fill:#D2EFFF;" d="M319.52,253.007v10.074c0,0.474,0.686,0.859,1.532,0.859c0.846,0,1.532-0.385,1.532-0.859
						v-10.074H319.52z"/>
					<path style="fill:#1D97B7;" d="M322.584,253.007c0,0.474-0.686,0.859-1.532,0.859c-0.846,0-1.532-0.385-1.532-0.859
						c0-0.474,0.686-0.859,1.532-0.859C321.898,252.148,322.584,252.532,322.584,253.007z"/>
				</g>
				<g>
					<path style="fill:#D2EFFF;" d="M329.103,259.098v10.074c0,0.474,0.686,0.859,1.532,0.859c0.846,0,1.533-0.384,1.533-0.859
						v-10.074H329.103z"/>
					<path style="fill:#1D97B7;" d="M332.168,259.098c0,0.474-0.686,0.859-1.533,0.859c-0.846,0-1.532-0.385-1.532-0.859
						c0-0.474,0.686-0.859,1.532-0.859C331.482,258.24,332.168,258.624,332.168,259.098z"/>
				</g>
				<g>
					<path style="fill:#D2EFFF;" d="M338.686,265.19v10.074c0,0.474,0.686,0.859,1.532,0.859c0.846,0,1.533-0.385,1.533-0.859
						V265.19H338.686z"/>
					<path style="fill:#1D97B7;" d="M341.751,265.19c0,0.474-0.686,0.859-1.533,0.859c-0.846,0-1.532-0.385-1.532-0.859
						s0.686-0.859,1.532-0.859C341.065,264.331,341.751,264.716,341.751,265.19z"/>
				</g>
			</g>
			<g>
				<polygon style="fill:#95CEFC;" points="294.444,236.64 346.896,271.504 349.674,270 349.674,264.072 296.009,229.878 
					293.231,231.382 				"/>
				<polygon style="fill:#ABDDFF;" points="293.231,237.311 346.896,271.504 346.896,265.576 293.231,231.382 				"/>
			</g>
			<g>
				<g>
					<path style="fill:#D2EFFF;" d="M300.353,230.211v4.861c0,0.474,0.686,0.859,1.532,0.859s1.533-0.385,1.533-0.859v-4.861
						H300.353z"/>
					<path style="fill:#1D97B7;" d="M303.418,230.211c0,0.474-0.686,0.859-1.533,0.859s-1.532-0.385-1.532-0.859
						c0-0.474,0.686-0.859,1.532-0.859S303.418,229.737,303.418,230.211z"/>
				</g>
				<g>
					<path style="fill:#D2EFFF;" d="M309.936,236.303v4.861c0,0.474,0.686,0.859,1.533,0.859c0.846,0,1.532-0.385,1.532-0.859
						v-4.861H309.936z"/>
					<path style="fill:#1D97B7;" d="M313.001,236.303c0,0.474-0.686,0.859-1.532,0.859c-0.846,0-1.533-0.385-1.533-0.859
						c0-0.474,0.686-0.859,1.533-0.859C312.315,235.444,313.001,235.829,313.001,236.303z"/>
				</g>
				<g>
					<path style="fill:#D2EFFF;" d="M319.52,242.395v4.861c0,0.474,0.686,0.859,1.532,0.859c0.846,0,1.532-0.385,1.532-0.859v-4.861
						H319.52z"/>
					<path style="fill:#1D97B7;" d="M322.584,242.395c0,0.474-0.686,0.859-1.532,0.859c-0.846,0-1.532-0.385-1.532-0.859
						c0-0.474,0.686-0.859,1.532-0.859C321.898,241.536,322.584,241.92,322.584,242.395z"/>
				</g>
				<g>
					<path style="fill:#D2EFFF;" d="M329.103,248.487v4.861c0,0.474,0.686,0.859,1.532,0.859c0.846,0,1.533-0.385,1.533-0.859
						v-4.861H329.103z"/>
					<path style="fill:#1D97B7;" d="M332.168,248.487c0,0.474-0.686,0.859-1.533,0.859c-0.846,0-1.532-0.385-1.532-0.859
						c0-0.474,0.686-0.859,1.532-0.859C331.482,247.628,332.168,248.012,332.168,248.487z"/>
				</g>
				<g>
					<path style="fill:#D2EFFF;" d="M338.686,254.578v4.861c0,0.474,0.686,0.859,1.532,0.859c0.846,0,1.533-0.385,1.533-0.859
						v-4.861H338.686z"/>
					<path style="fill:#1D97B7;" d="M341.751,254.578c0,0.474-0.686,0.859-1.533,0.859c-0.846,0-1.532-0.384-1.532-0.859
						c0-0.474,0.686-0.859,1.532-0.859C341.065,253.719,341.751,254.104,341.751,254.578z"/>
				</g>
			</g>
			<g>
				<g>
					<path style="opacity:0.75;fill:#FFFFFF;" d="M323.977,180.907v7.397c0,1.139,1.487,2.063,3.32,2.063
						c1.834,0,3.321-0.923,3.321-2.063v-7.397H323.977z"/>
					<path style="fill:#A7DAED;" d="M330.62,183.334v2.91c0,1.139-1.486,2.055-3.318,2.055c-1.832,0-3.331-0.916-3.331-2.055v-2.91
						c0,1.139,1.498,2.068,3.331,2.068C329.134,185.402,330.62,184.473,330.62,183.334z"/>
					<path style="opacity:0.75;fill:#FFFFFF;" d="M330.593,180.705c0,0-0.02-0.104-0.034-0.157
						c-0.008-0.028-0.013-0.056-0.022-0.083c-0.291-0.993-1.255-1.512-1.255-1.512v0.31c-0.555-0.259-1.237-0.418-1.985-0.418
						c-0.747,0-1.429,0.159-1.984,0.418v-0.31c0,0-0.964,0.519-1.255,1.512c-0.01,0.027-0.014,0.055-0.022,0.083
						c-0.013,0.053-0.058,0.29-0.058,0.359c0,1.139,1.487,2.063,3.32,2.063c1.834,0,3.321-0.923,3.321-2.063
						C330.618,180.837,330.604,180.772,330.593,180.705z"/>
					<ellipse style="fill:#4478AB;" cx="327.297" cy="180.125" rx="2.74" ry="1.702"/>
					<path style="fill:#F1F1F1;" d="M325.499,177.858v2.267c0,0.617,0.805,1.117,1.798,1.117c0.993,0,1.798-0.5,1.798-1.117v-2.267
						H325.499z"/>
					<path style="fill:#A7DAED;" d="M329.358,178.055c-0.4-0.455-1.168-0.768-2.061-0.768c-0.916,0-1.702,0.328-2.091,0.803
						l-0.265-0.232v0.893c0,0.808,1.055,1.464,2.357,1.464c1.302,0,2.357-0.655,2.357-1.464v-0.893L329.358,178.055z"/>
					<path style="fill:#4478AB;" d="M329.654,177.858c0,0.809-1.055,1.464-2.357,1.464c-1.301,0-2.357-0.655-2.357-1.464
						c0-0.808,1.055-1.464,2.357-1.464C328.599,176.394,329.654,177.05,329.654,177.858z"/>
					<path style="fill:#A7DAED;" d="M329.096,177.858c0,0.617-0.805,1.117-1.798,1.117s-1.798-0.5-1.798-1.117
						c0-0.617,0.805-1.117,1.798-1.117S329.096,177.241,329.096,177.858z"/>
				</g>
				<g>
					<path style="opacity:0.75;fill:#FFFFFF;" d="M331.868,185.951v7.397c0,1.139,1.487,2.063,3.32,2.063
						c1.834,0,3.321-0.923,3.321-2.063v-7.397H331.868z"/>
					<path style="fill:#A7DAED;" d="M338.511,188.378v2.91c0,1.139-1.486,2.055-3.319,2.055c-1.832,0-3.331-0.916-3.331-2.055v-2.91
						c0,1.139,1.498,2.068,3.331,2.068C337.025,190.446,338.511,189.517,338.511,188.378z"/>
					<path style="opacity:0.75;fill:#FFFFFF;" d="M338.484,185.749c0,0-0.02-0.104-0.034-0.157
						c-0.008-0.028-0.013-0.056-0.022-0.083c-0.291-0.993-1.255-1.512-1.255-1.512v0.31c-0.555-0.259-1.237-0.418-1.985-0.418
						c-0.747,0-1.429,0.159-1.984,0.418v-0.31c0,0-0.964,0.519-1.255,1.512c-0.01,0.027-0.014,0.055-0.022,0.083
						c-0.013,0.053-0.058,0.29-0.058,0.359c0,1.139,1.487,2.063,3.32,2.063c1.834,0,3.321-0.924,3.321-2.063
						C338.509,185.882,338.495,185.816,338.484,185.749z"/>
					<ellipse style="fill:#4478AB;" cx="335.188" cy="185.169" rx="2.74" ry="1.702"/>
					<path style="fill:#F1F1F1;" d="M333.39,182.902v2.267c0,0.617,0.805,1.117,1.798,1.117c0.993,0,1.798-0.5,1.798-1.117v-2.267
						H333.39z"/>
					<path style="fill:#A7DAED;" d="M337.249,183.099c-0.4-0.455-1.168-0.768-2.061-0.768c-0.916,0-1.702,0.328-2.091,0.803
						l-0.265-0.232v0.893c0,0.808,1.055,1.464,2.357,1.464c1.302,0,2.356-0.656,2.356-1.464v-0.893L337.249,183.099z"/>
					<path style="fill:#4478AB;" d="M337.545,182.902c0,0.809-1.055,1.464-2.356,1.464c-1.301,0-2.357-0.655-2.357-1.464
						c0-0.809,1.055-1.464,2.357-1.464C336.49,181.439,337.545,182.094,337.545,182.902z"/>
					<path style="fill:#A7DAED;" d="M336.986,182.902c0,0.617-0.805,1.117-1.798,1.117s-1.798-0.5-1.798-1.117
						c0-0.617,0.805-1.117,1.798-1.117S336.986,182.285,336.986,182.902z"/>
				</g>
				<g>
					<path style="opacity:0.75;fill:#FFFFFF;" d="M339.758,190.995v7.397c0,1.139,1.487,2.063,3.32,2.063
						c1.834,0,3.321-0.923,3.321-2.063v-7.397H339.758z"/>
					<path style="fill:#A7DAED;" d="M346.402,193.422v2.91c0,1.139-1.486,2.055-3.318,2.055c-1.833,0-3.331-0.916-3.331-2.055v-2.91
						c0,1.139,1.498,2.068,3.331,2.068C344.916,195.49,346.402,194.561,346.402,193.422z"/>
					<path style="opacity:0.75;fill:#FFFFFF;" d="M346.375,190.793c0,0-0.02-0.104-0.034-0.157
						c-0.008-0.028-0.013-0.056-0.022-0.083c-0.291-0.993-1.255-1.512-1.255-1.512v0.31c-0.555-0.259-1.237-0.418-1.984-0.418
						c-0.747,0-1.43,0.159-1.984,0.418v-0.31c0,0-0.964,0.519-1.255,1.512c-0.01,0.027-0.015,0.055-0.023,0.083
						c-0.013,0.053-0.058,0.29-0.058,0.36c0,1.139,1.487,2.063,3.32,2.063c1.834,0,3.321-0.924,3.321-2.063
						C346.399,190.926,346.385,190.86,346.375,190.793z"/>
					<path style="fill:#4478AB;" d="M345.819,190.213c0,0.94-1.227,1.702-2.74,1.702c-1.513,0-2.74-0.762-2.74-1.702
						c0-0.94,1.227-1.702,2.74-1.702C344.592,188.511,345.819,189.273,345.819,190.213z"/>
					<path style="fill:#F1F1F1;" d="M341.281,187.946v2.267c0,0.617,0.805,1.117,1.798,1.117c0.993,0,1.798-0.5,1.798-1.117v-2.267
						H341.281z"/>
					<path style="fill:#A7DAED;" d="M345.14,188.143c-0.4-0.455-1.168-0.768-2.061-0.768c-0.916,0-1.702,0.328-2.091,0.803
						l-0.265-0.232v0.893c0,0.808,1.055,1.464,2.357,1.464c1.302,0,2.357-0.655,2.357-1.464v-0.893L345.14,188.143z"/>
					<ellipse style="fill:#4478AB;" cx="343.079" cy="187.946" rx="2.357" ry="1.464"/>
					<path style="fill:#A7DAED;" d="M344.877,187.946c0,0.617-0.805,1.117-1.798,1.117c-0.993,0-1.798-0.5-1.798-1.117
						c0-0.617,0.805-1.117,1.798-1.117C344.072,186.829,344.877,187.329,344.877,187.946z"/>
				</g>
			</g>
		</g>
		<g>
			<g style="opacity:0.3;">
				<path style="fill:#2E8CCC;" d="M381.863,109.063l-2.502-1.456l0,0c-0.118-0.077-0.295-0.069-0.496,0.047l-1.149,0.664
					l0.243-0.904l-2.581-1.494c-0.118-0.063-0.286-0.049-0.475,0.06l-5.559,3.21c-0.354,0.205-0.642,0.658-0.642,1.012v3.321
					l-3.321,1.917c-0.354,0.205-0.642,0.658-0.642,1.012v5.559c0,0.136,0.043,0.237,0.116,0.299l0,0.001l0.012,0.007
					c0.022,0.017,0.044,0.031,0.07,0.041l2.518,1.459l1.247-1.114v0.982c0,0.149,0.053,0.254,0.138,0.314l0,0l0,0
					c0.018,0.013,0.037,0.025,0.058,0.033l2.584,1.494l1.625-3.743l1.796-1.037c0.354-0.205,0.642-0.658,0.642-1.012v-0.88
					l3.962-4.025L381.863,109.063z"/>
				<path style="fill:#E1F4FF;" d="M367.955,116.93l3.321-1.917v-3.321c0-0.354,0.287-0.808,0.642-1.012l5.559-3.209
					c0.354-0.205,0.642-0.083,0.642,0.271v3.321l3.321-1.917c0.354-0.205,0.642-0.083,0.642,0.271v5.559
					c0,0.354-0.287,0.807-0.642,1.012l-3.321,1.917v3.321c0,0.354-0.287,0.807-0.642,1.012l-5.559,3.209
					c-0.354,0.205-0.642,0.083-0.642-0.271v-3.32l-3.321,1.917c-0.355,0.205-0.642,0.083-0.642-0.271v-5.559
					C367.314,117.588,367.601,117.135,367.955,116.93z"/>
			</g>
			<g style="opacity:0.5;">
				<path style="fill:#95CEFC;" d="M99.283,151.024l-1.999-1.158l0,0c-0.145-0.095-0.364-0.085-0.612,0.058l-2.229,1.293
					l0.022-2.228l-2.095-1.206c-0.145-0.077-0.353-0.061-0.587,0.074l-6.859,3.96c-0.437,0.252-0.792,0.812-0.792,1.249v4.097
					l-4.097,2.366c-0.437,0.252-0.792,0.811-0.792,1.249v6.859c0,0.168,0.053,0.293,0.142,0.369v0.001l0.015,0.009
					c0.026,0.02,0.055,0.038,0.087,0.05l2.018,1.162l2.627-1.677v2.153c0,0.184,0.065,0.313,0.171,0.387l0,0l0,0
					c0.022,0.016,0.045,0.031,0.071,0.041l2.099,1.204l2.005-4.618l2.215-1.279c0.437-0.253,0.792-0.812,0.792-1.249v-1.086
					l4.889-4.967L99.283,151.024z"/>
				<path style="fill:#E1F4FF;" d="M82.122,160.731l4.097-2.366v-4.097c0-0.437,0.354-0.997,0.792-1.249l6.859-3.96
					c0.437-0.253,0.792-0.103,0.792,0.335v4.097l4.097-2.366c0.437-0.252,0.792-0.102,0.792,0.335v6.859
					c0,0.437-0.354,0.996-0.792,1.249l-4.097,2.366v4.097c0,0.437-0.354,0.996-0.792,1.249l-6.859,3.96
					c-0.437,0.252-0.792,0.103-0.792-0.335v-4.097l-4.097,2.365c-0.437,0.253-0.792,0.103-0.792-0.335v-6.859
					C81.331,161.543,81.685,160.984,82.122,160.731z"/>
			</g>
			<g style="opacity:0.7;">
				<path style="fill:#95CEFC;" d="M149.577,254.267l-1.486-0.865l0,0c-0.07-0.046-0.175-0.041-0.295,0.028l-0.683,0.394
					l0.145-0.537l-1.533-0.888c-0.07-0.037-0.17-0.029-0.282,0.036l-3.302,1.906c-0.21,0.122-0.381,0.391-0.381,0.601v1.972
					l-1.972,1.139c-0.21,0.122-0.381,0.391-0.381,0.601v3.302c0,0.081,0.026,0.141,0.069,0.178l0,0l0.007,0.004
					c0.013,0.01,0.026,0.018,0.042,0.024l1.495,0.867l0.74-0.662v0.583c0,0.089,0.031,0.151,0.082,0.186l0,0l0,0
					c0.011,0.008,0.022,0.015,0.034,0.02l1.535,0.887l0.965-2.223l1.066-0.616c0.21-0.122,0.381-0.391,0.381-0.601v-0.523
					l2.353-2.391L149.577,254.267z"/>
				<path style="fill:#E1F4FF;" d="M141.317,258.939l1.972-1.139v-1.972c0-0.21,0.171-0.48,0.381-0.601l3.301-1.906
					c0.21-0.122,0.381-0.049,0.381,0.161v1.972l1.972-1.139c0.21-0.122,0.381-0.049,0.381,0.161v3.302
					c0,0.211-0.171,0.48-0.381,0.601l-1.972,1.139v1.972c0,0.21-0.171,0.48-0.381,0.601l-3.301,1.906
					c-0.21,0.121-0.381,0.049-0.381-0.161v-1.972l-1.972,1.139c-0.21,0.121-0.381,0.049-0.381-0.161v-3.302
					C140.936,259.33,141.106,259.06,141.317,258.939z"/>
			</g>
			<g>
				<path style="fill:#95CEFC;" d="M81.138,253.908l-1.771-1.029l0,0c-0.105-0.068-0.262-0.061-0.441,0.042l-1.258,0.73l-0.004-1.21
					l-1.84-1.063c-0.104-0.056-0.254-0.044-0.423,0.054l-4.945,2.855c-0.315,0.182-0.571,0.585-0.571,0.9v2.954l-2.954,1.705
					c-0.315,0.182-0.571,0.585-0.571,0.9v4.945c0,0.121,0.038,0.211,0.103,0.266l0,0.001l0.011,0.006
					c0.019,0.015,0.039,0.027,0.063,0.036l1.784,1.032l1.563-1.127l0.001,1.275c0,0.133,0.047,0.226,0.123,0.279l0,0l0,0
					c0.016,0.011,0.033,0.022,0.051,0.03l1.843,1.062l1.445-3.329l1.597-0.922c0.315-0.182,0.571-0.585,0.571-0.9v-0.783
					l3.524-3.581L81.138,253.908z"/>
				<path style="fill:#E1F4FF;" d="M68.767,260.906l2.954-1.705v-2.954c0-0.315,0.256-0.718,0.571-0.9l4.945-2.855
					c0.315-0.182,0.571-0.074,0.571,0.241v2.954l2.954-1.705c0.315-0.182,0.571-0.074,0.571,0.241v4.945
					c0,0.315-0.256,0.718-0.571,0.9l-2.954,1.705v2.954c0,0.315-0.256,0.718-0.571,0.9l-4.945,2.855
					c-0.315,0.182-0.571,0.074-0.571-0.241v-2.954l-2.954,1.705c-0.315,0.182-0.571,0.074-0.571-0.241v-4.945
					C68.196,261.491,68.451,261.088,68.767,260.906z"/>
			</g>
			<g>
				<path style="fill:#2E8CCC;" d="M201.126,104.088l-1.431-0.826l0,0c-0.094-0.061-0.234-0.055-0.394,0.037l-1.384,0.802
					l0.11-1.324l-1.493-0.856c-0.093-0.05-0.227-0.039-0.377,0.048l-4.413,2.548c-0.281,0.162-0.509,0.522-0.509,0.804v2.636
					l-2.636,1.522c-0.281,0.162-0.51,0.522-0.51,0.804v4.413c0,0.108,0.034,0.188,0.092,0.237v0.001l0.01,0.006
					c0.017,0.013,0.035,0.024,0.056,0.032l1.444,0.828l1.542-1.182l0.003,1.408c0,0.118,0.042,0.202,0.11,0.249l0,0l0,0
					c0.014,0.01,0.029,0.02,0.046,0.027l1.496,0.856l6.371-8.493L201.126,104.088z"/>
				<path style="fill:#E1F4FF;" d="M190.084,110.334l2.636-1.522v-2.636c0-0.281,0.228-0.641,0.509-0.803l4.413-2.548
					c0.281-0.162,0.509-0.066,0.509,0.215v2.636l2.636-1.522c0.281-0.162,0.509-0.066,0.509,0.215v4.413
					c0,0.281-0.228,0.641-0.509,0.803l-2.636,1.522v2.636c0,0.281-0.228,0.641-0.509,0.803l-4.413,2.548
					c-0.281,0.162-0.509,0.066-0.509-0.215v-2.636l-2.636,1.522c-0.281,0.163-0.509,0.066-0.509-0.215v-4.413
					C189.575,110.856,189.803,110.496,190.084,110.334z"/>
			</g>
		</g>
		<g>
			<path style="fill:#1C7BAF;" d="M124.742,126.105l34.732-22.118c0.393-0.25,0.849-0.191,1.175,0.051l0.003-0.005l3.028,1.826
				l-1.352,1.73v24.661c0,1.28-0.654,2.472-1.734,3.16l-33.796,21.521v1.821l-3.25-1.951l0,0c-0.313-0.171-0.54-0.501-0.54-0.911
				v-26.625C123.008,127.985,123.662,126.793,124.742,126.105z"/>
			<path style="fill:#78C5F9;" d="M127.998,128.06l34.732-22.118c0.692-0.44,1.597,0.056,1.597,0.876v26.625
				c0,1.281-0.654,2.472-1.734,3.16l-34.732,22.117c-0.692,0.44-1.597-0.056-1.597-0.876V131.22
				C126.264,129.94,126.918,128.748,127.998,128.06z"/>
			<path style="fill:none;stroke:#FFFFFF;stroke-width:0.5447;stroke-miterlimit:10;" d="M129.611,129.064l31.806-20.254
				c0.492-0.313,1.135,0.04,1.135,0.623v23.351c0,1.161-0.593,2.242-1.572,2.865l-31.953,20.348
				c-0.428,0.272-0.988-0.035-0.988-0.542v-23.525C128.039,130.768,128.632,129.688,129.611,129.064z"/>
			<g>
				<path style="fill:#FFFFFF;" d="M145.187,134.711c0.122,0.178,0.242,0.35,0.356,0.514c0.093,0.132,0.182,0.261,0.268,0.385
					c0.333,0.486,0.522,1.171,0.689,1.775c0.149,0.541,0.289,1.052,0.519,1.377c0.43,0.612,1.075,0.395,1.54,0.104l0.007-0.004l0,0
					l0.001,0l0.006-0.004c0.441-0.277,1.055-0.859,1.486-2.066c0.221-0.618,0.367-1.3,0.523-2.022
					c0.161-0.752,0.341-1.59,0.598-2.227c0.021-0.053,0.06-0.097,0.099-0.122c0.039-0.023,0.077-0.027,0.099-0.001
					c0.257,0.316,0.437,0.929,0.598,1.48c0.156,0.527,0.302,1.026,0.523,1.369c0.431,0.668,1.045,0.482,1.486,0.208l0.006-0.004
					l0.001,0l0.001,0l0.007-0.004c0.465-0.291,1.11-0.879,1.54-2.029c0.23-0.613,0.37-1.298,0.519-2.025
					c0.167-0.812,0.356-1.733,0.689-2.636c0.086-0.231,0.175-0.471,0.268-0.72c0.115-0.308,0.235-0.629,0.357-0.96
					c0.903-2.379,1.969-5.22,1.926-7.489c0.001-0.069,0.006-0.14,0.005-0.208c-0.008-1.251-0.456-2.02-1.296-2.221
					c-0.729-0.175-1.725,0.1-2.804,0.774l-0.002,0.001c0,0-0.001,0.001-0.003,0.002c-0.001,0.001-0.004,0.002-0.004,0.002
					c-0.021,0.013-0.042,0.029-0.063,0.043c-0.13,0.083-0.26,0.169-0.39,0.262c-0.031,0.022-0.061,0.046-0.091,0.068
					c-0.107,0.078-0.215,0.157-0.321,0.242c-0.016,0.013-0.036,0.031-0.053,0.045c-0.027,0.022-0.053,0.046-0.08,0.067
					c-0.017,0.014-0.032,0.027-0.049,0.042c-0.269,0.224-0.535,0.463-0.791,0.718c-0.698,0.694-1.446,1.279-2.077,1.704
					c-0.63,0.362-1.378,0.712-2.077,0.891c-0.256,0.066-0.522,0.159-0.791,0.271c-0.018,0.006-0.032,0.013-0.049,0.019
					c-0.027,0.011-0.053,0.021-0.08,0.033c-0.017,0.007-0.038,0.015-0.053,0.022c-0.107,0.048-0.214,0.104-0.321,0.16
					c-0.03,0.016-0.06,0.029-0.091,0.045c-0.13,0.07-0.26,0.146-0.39,0.225c-0.021,0.013-0.042,0.023-0.063,0.036
					c-0.002,0.001-0.003,0.002-0.005,0.004c0,0-0.001,0-0.003,0.001l-0.001,0c-1.079,0.675-2.075,1.644-2.804,2.73
					c-0.84,1.251-1.288,2.579-1.296,3.84c0,0.068,0.004,0.134,0.006,0.201C143.217,131.951,144.283,133.461,145.187,134.711z"/>
				<g>
					<polygon style="fill:#FFFFFF;" points="131.288,136.406 141.773,129.854 141.773,128.628 131.288,135.18 					"/>
					<polygon style="fill:#FFFFFF;" points="131.288,139.027 141.773,132.475 141.773,131.249 131.288,137.801 					"/>
					<polygon style="fill:#FFFFFF;" points="131.288,141.649 141.773,135.096 141.773,133.871 131.288,140.423 					"/>
					<polygon style="fill:#FFFFFF;" points="131.288,144.27 141.773,137.718 141.773,136.492 131.288,143.044 					"/>
					<polygon style="fill:#FFFFFF;" points="137.74,141.632 137.74,142.855 131.284,146.89 131.284,145.667 					"/>
				</g>
			</g>
		</g>
		<g>
			<g>
				<g>
					<path style="fill:#0E0C18;" d="M251.1,312.89l-23.131,4.529c0,0-1.575,1.511-1.812,2.144c-0.387,1.036,0.233,2.964,2.857,3.651
						c2.624,0.687,5.3,0.021,7.532-0.877c2.231-0.898,7.346-3.724,7.947-3.865l0.711,0.262c0.284,0.104,0.589,0.11,0.875,0.012
						c0.317-0.109,0.799-0.294,1.454-0.599c1.3-0.606,3.713-1.978,3.714-2.235C251.248,315.548,251.1,312.89,251.1,312.89z"/>
					<path style="fill:#1B115E;" d="M241.231,305.856c0,0-1.413,0.587-4.703,3.9c-3.291,3.313-9.406,6.838-10.351,8.77
						c-0.811,1.658,0.016,3.313,2.949,4.193c2.981,0.894,7.8-1.237,10.788-3.262c2.989-2.024,9.648-3.206,10.875-5.26
						c1.208-2.023-0.288-5.483-0.849-6.338C249.38,307.004,248.182,304.226,241.231,305.856z"/>
				</g>
				<path style="fill:#0E0C18;" d="M252.251,335.975l22.692-4.374c0,0,0.11,1.371,0,1.792c-0.11,0.422-4.209,2.52-5.566,2.453
					l-0.002,0.003l-0.578-0.148c-2.101,1.535-4.189,2.413-6.36,3.125c-1.096,0.36-4.733,1.408-7.698,0.703
					C252.379,338.967,251.781,337.012,252.251,335.975z"/>
				<path style="fill:#1B115E;" d="M272.815,322.148c0,0,2.246,0.939,2.426,8.306c0,0-0.049,1.216-0.826,1.847
					c-0.777,0.632-3.451,1.312-5.298,2.431c-1.847,1.118-4.945,2.96-8.777,3.927c-4.504,1.138-7.146-0.097-7.972-1.021
					c-0.826-0.923-0.389-2.916,1.312-4.083c1.701-1.166,6.847-6.306,7.993-7.892c1.487-2.058,3.517-3.37,3.712-3.71
					C265.578,321.613,271.211,322.926,272.815,322.148z"/>
				<path style="fill:#F2CFA4;" d="M248.921,299.905c0,0-0.553,5.629-0.406,7.181c0.147,1.552-6.497,2.492-8.311,0.418
					c0,0-0.292-5.822-0.357-8.285"/>
				<path style="fill:#0D074C;" d="M262.529,214.071c-0.047,4.084-0.42,6.512-0.98,8.962c-0.467,2.077-3.944,3.758-4.644,6.885
					c-0.164,0.794-0.42,2.334-0.724,4.435c-0.747,5.368-1.774,14.447-2.544,24.32c0.047,2.077,0.047,4.225,0,6.442
					c-0.376,16.156-3.253,34.945-3.857,38.735c-0.075,0.472-0.356,0.886-0.775,1.116c-1.208,0.664-4.035,1.723-8.239,0.323
					c-1.223-0.407-2.057-1.543-2.123-2.83c-0.324-6.252-1.375-26.142-2.651-45.839c-1.704-25.674-0.07-54.078,0-57.719
					c0.07-5.625,22.476,0.583,22.476,0.583S262.669,206.509,262.529,214.071z"/>
				<path style="fill:#0E0C18;" d="M256.18,234.353c-0.747,5.368-1.774,14.447-2.544,24.32c0.047,2.077,0.047,4.225,0,6.442
					l-0.023,0.07l-0.89-38.121L256.18,234.353z"/>
				<path style="fill:#F2CFA4;" d="M273.246,315.779c0,0-0.553,5.629-0.406,7.182c0.147,1.552-6.496,2.492-8.311,0.418
					c0,0-0.292-5.504-0.357-7.967"/>
				<path style="fill:#0D074C;" d="M276.565,206.375c0,0,3.824,8.343,3.701,15.916c-0.122,7.521-1.361,11.864-2.786,16.247
					c-0.234,7.46-1.476,25.407-0.937,28.17c0.521,2.669,1.108,11.353,0.633,19.746c-0.409,7.227-2.292,28.383-2.702,32.564
					c-0.053,0.544-0.362,1.03-0.842,1.292c-1.322,0.721-4.305,1.846-8.519,0.474c-1.212-0.395-2.07-1.477-2.217-2.743
					c-1.497-12.948-9.639-88.353-10.449-92.969c-2.456-6.645-1.927-12.696-1.927-16.287
					C250.519,205.192,276.565,206.375,276.565,206.375z"/>
			</g>
			<g>
				<path style="fill:#0A437C;" d="M280.659,350.019l-14.387,8.518c-0.737,0.439-1.57,0.649-2.395,0.64
					c-0.684-0.009-1.368-0.184-1.991-0.509l-9.448-6.018l11.44-1.07L280.659,350.019z"/>
				<path style="fill:#0F4B93;" d="M261.806,358.634c-0.096-0.053-0.184-0.105-0.281-0.167l-7.86-5.018l-58.216-37.1
					c-0.491-0.316-0.79-0.86-0.79-1.439v-20.133l34.696-3.176l34.521,59.628v7.948c-0.684-0.009-1.368-0.184-1.991-0.509"/>
				<polygon style="fill:#1C64AD;" points="271.886,359.422 194.663,310.206 194.663,289.143 229.352,285.963 				"/>
				<path style="fill:#F0F4F7;" d="M256.033,343.963l-65.34-41.643c-1.189-0.757-1.908-2.069-1.908-3.479v-16.079l30.208-2.77
					L256.033,343.963z"/>
				<path style="fill:#1C7BAF;" d="M227.758,241.826l-46.948,27.848c-2.501,1.484-5.732,0.661-7.219-1.839l-28.462-47.857
					c-1.152-1.938-0.514-4.442,1.425-5.592l46.948-27.841c2.501-1.483,5.731-0.66,7.218,1.839l28.462,47.849
					C230.335,238.171,229.697,240.675,227.758,241.826z"/>
				<path style="fill:#1C7BAF;" d="M193.262,192.221l-40.39,23.958l-16.666-36.352c-1.905-4.156-0.367-9.08,3.566-11.412
					l18.839-11.171c3.723-2.208,8.515-1.211,11.049,2.297L193.262,192.221z"/>
				<path style="fill:#1C7BAF;" d="M329.312,336.209c-0.033-0.047-0.053-0.099-0.089-0.146l-38.615-50.273l2.183-1.295l-6.224-3.966
					l-0.109-0.142l-0.059,0.035l-42.708-27.214c-1.965-1.252-4.466-1.292-6.47-0.103l-48.738,28.91
					c-1.367,0.811-1.398,2.778-0.058,3.632l40.974,26.113c1.437,0.916,2.703,2.075,3.741,3.427l41.108,53.519
					c1.552,2.02,4.368,2.563,6.559,1.263l47.288-28.046c0.26-0.154,0.495-0.333,0.705-0.532l0,0l6.235-6.114L329.312,336.209z"/>
				<path style="fill:#95CEFC;" d="M234.284,237.969l-46.948,27.848c-2.502,1.484-5.732,0.661-7.219-1.839l-28.462-47.857
					c-1.152-1.937-0.514-4.442,1.425-5.592l46.948-27.841c2.501-1.483,5.731-0.66,7.218,1.839l28.462,47.85
					C236.861,234.314,236.223,236.819,234.284,237.969z"/>
				<path style="fill:#95CEFC;" d="M199.788,188.365l-40.39,23.958l-16.666-36.352c-1.905-4.156-0.367-9.08,3.566-11.412
					l18.839-11.172c3.723-2.208,8.515-1.211,11.049,2.298L199.788,188.365z"/>
				<path style="fill:#95CEFC;" d="M335.556,329.863l-40.611-52.871c-1.425-1.855-3.163-3.447-5.136-4.704l-46.118-29.386
					c-1.965-1.252-4.466-1.292-6.47-0.103l-48.738,28.91c-1.367,0.811-1.398,2.778-0.058,3.633l46.389,29.564
					c1.972,1.257,3.71,2.849,5.135,4.704l40.631,52.898c1.552,2.02,4.368,2.563,6.559,1.263l47.288-28.046
					C336.485,334.504,337.013,331.76,335.556,329.863z"/>
				<g>
					<g id="XMLID_8570_">
						<path style="fill:#FFFFFF;" d="M304.916,346.905c-0.351,1.009-1.263,2.062-2.834,2.79c-2.623,1.237-7.141-0.728-8.746-1.641
							c-0.807-0.465-2.22-0.974-3.386-3.07c-0.07-0.14-2.544-2.79-2.544-2.834c-0.132,0.061-0.57,0.491-0.702,0.544
							c-1.579-1.623-6.167-5.737-5.939-10.133c0.018-0.64,0.158-1.29,0.421-1.939c0-0.702,0.684-2.544,1.869-3.421
							c1.605-1.193,4.623-2.105,7.088,0.807c0.088,0.097,1.658,2.07,1.728,2.176c1.167,1.588,2.176,3.026,3.57,4.456
							c1.202,1.219,2.386,2.395,3.649,3.544c0.684,0.614,1.316,1.281,1.939,1.965c1.167,1.29,3.307,3.737,3.842,4.851
							C305.135,345.545,305.153,346.212,304.916,346.905z"/>
					</g>
					<path style="fill:#E8CAAF;" d="M284.662,320.971c0,0,5.826,8.109,7.018,9.988c1.193,1.879-1.567,4.951-4.757,4.72
						c-1.276-0.092-3.53-1.425-4.634-4.139c-2.294-1.807-7.038-8.729-7.038-8.729"/>
					<path style="fill:#FFFFFF;" d="M292.557,332.455c0,0-0.726-1.436-1.645-1.055c-0.919,0.381-4.664,2.87-4.799,3.661
						c-0.136,0.791,0.495,1.801,0.495,1.801s1.947,0.555,3.642-0.671c2.872-2.077,1.952-4.158,1.952-4.158"/>
					<path style="fill:#0E0754;" d="M304.916,346.905c0.526,0.902-1.316,2.189-2.887,2.917c-2.623,1.237-7.117-0.691-8.722-1.604
						c-0.807-0.465-2.19-1.138-3.357-3.235c-0.07-0.14-2.544-2.79-2.544-2.834c-0.132,0.061-0.57,0.491-0.702,0.544
						c-1.075-1.105-3.939-3.778-5.633-6.319c-0.932-1.398-0.85-2.536-0.306-3.814c0.026,0.412,0.211,1.816,1.351,3.29
						c1.342,1.755,4.173,4.73,5.603,5.993c1.421,1.255,2.205,2.262,2.81,2.972c0.605,0.719,0.579,1.342,2.799,2.553
						C295.546,348.572,300.968,351.397,304.916,346.905z"/>
				</g>
				<g>
					<g id="XMLID_8574_">
						<path style="fill:#FFFFFF;" d="M327.607,334.49c-0.526,1.044-3.465,4.5-11.369,3.132c-1.562-0.272-3.035-0.491-4.5-1.114
							c-1.088-0.456-2.132-1.026-3.106-1.693c-0.14-0.096-0.956-0.868-1.114-0.842l-2.728,0.509l-6.422-1.921
							c0,0-0.053-0.781-0.123-1.825c-0.598-1.142-0.149-2.711-0.184-3.878c-0.097-3.053,0.921-3.763,1-3.842
							c0.079-0.061,9.861-0.965,11.08-1.421c1.281-0.474,3.211,2.553,5.255,3.684c3.755,2.062,7.983,3.746,9.931,4.764
							c0.851,0.447,1.86,1.553,2.272,2.676C327.827,333.341,327.87,333.973,327.607,334.49z"/>
					</g>
					<path style="fill:#E8CAAF;" d="M294.988,318.915c0,0,3.948,4.076,5.373,5.319c1.426,1.243,5.428,2.221,7.914,1.051
						c2.486-1.17,2.12-3.18,1.864-3.692c-0.256-0.512-4.423-5.885-4.423-5.885"/>
					<path style="fill:#FFFFFF;" d="M310.139,321.593c0,0-3.461,1.063-3.856,3.436c-0.095,0.57-1.756,0.731-1.647,0.731
						c0.11,0,1.789,3.625,5.503,0.804c3.253-2.471,0.731-4.24,0.731-4.24"/>
					<path style="fill:#0E0754;" d="M327.719,334.618c-0.526,1.044-3.577,4.372-11.481,3.004c-1.562-0.272-3.035-0.491-4.5-1.114
						c-1.088-0.456-2.132-1.026-3.106-1.693c-0.14-0.096-0.956-0.868-1.114-0.842l-2.728,0.509l-6.422-1.921
						c0,0-0.053-0.781-0.123-1.825h0.009l6.544,1.886l2.886-0.272c0,0,1.009,0.956,1.658,1.456c0.641,0.491,2.325,1.614,3.579,2.027
						c1.254,0.412,5.106,1.202,7.483,1.009c2.369-0.193,4.794-1.029,6.261-2.437c0.763-0.732,0.924-1.336,0.933-1.687
						C328.29,333.091,327.982,334.101,327.719,334.618z"/>
				</g>
				<path style="fill:#170960;" d="M301.565,321.964c-1.307,0.386-2.509,0.596-3.632,0.675c-1.228,0.097-2.369,0.053-3.509-0.061
					c-0.114-0.009-0.237-0.017-0.351-0.035c-0.035-0.035-0.07-0.07-0.105-0.114c-2.939-3.114-28.985-36.424-30.52-37.214
					c-2.246-1.149-11.176-2.851-19.274-4.342v-0.009c-6.781-1.246-12.966-2.369-14.159-2.886c-4.378-1.93-8.659-3.711-12.633-6.369
					c-2.035-1.36-3.895-3.044-5.193-5.141c-0.807-1.307-1.43-3.035-1.219-4.597c0.175-1.377,1.29-2.228,2.386-3
					c1.316-0.912,2.702-1.772,3.956-2.763c1.044-0.825,1.737-2.114,2.228-3.386c0.079-0.193,1.763-3.351,1.79-3.351
					c0.096,0.149,15.405-3.176,16.835-3.36c10.764,5.176,33.617,20.44,39.644,25.502c3.606,3.027,26.516,40.366,28.371,43.425
					C308.074,318.062,303.74,321.315,301.565,321.964z"/>
				<path style="fill:#080744;" d="M297.933,322.639c-1.228,0.097-2.369,0.053-3.509-0.061c-0.149-0.044-0.298-0.096-0.456-0.149
					c-2.939-3.114-28.985-36.424-30.52-37.214c-2.246-1.149-11.176-2.851-19.274-4.342v-0.009
					c-0.807-1.79-4.869-15.607-4.869-15.607s28.046,16.528,30.099,17.756C271.448,284.233,295.134,318.788,297.933,322.639z"/>
				<path style="fill:#170960;" d="M285.993,331.123c-0.772,0.509-1.57,0.807-2.395,0.939c-1.833,0.298-3.763-0.219-5.72-0.939
					c-1.29-0.483-7.395-6.624-12.642-12.887c-3.57-4.255-10.238-11.94-17.695-21.572c-4.027-2.281-26.467-13.15-29.02-14.405
					c-6.106-1.641-9.457-2.93-13.431-5.588c-2.948-1.983-5.342-5.316-5.869-7.72c-0.983-4.439,0.14-4.062,0.509-5.255
					c0.026-0.079,0.053-0.175,0.07-0.281c0.237-1.368-0.07-2.009,0.991-2.834c14.282-11.124,24.958-3.93,26.388-3.465
					c1.368,0.439,36.591,25.125,38.749,27.248c2.351,2.307,22.16,35.258,23.169,38.688
					C289.941,325.903,289.8,328.605,285.993,331.123z"/>
				<path style="fill:#080744;" d="M283.607,332.053l-0.009,0.009c-1.833,0.298-3.763-0.219-5.72-0.939
					c-1.29-0.483-7.395-6.624-12.642-12.887c-3.12-3.718-8.604-10.054-14.913-18.02c-1.933-2.44-4.378-4.429-7.156-5.833
					c-7.902-3.996-22.608-11.122-24.645-12.123c-6.106-1.641-9.457-2.93-13.431-5.588c-2.948-1.983-5.342-5.316-5.869-7.72
					c-0.983-4.439,0.14-4.062,0.509-5.255l6.588,4.378c0,0,0.544,5.632,10.08,8.922c7.143,2.464,22.748,10.372,30.128,14.185
					c2.63,1.359,4.933,3.264,6.756,5.597c5.979,7.651,19.933,25.479,23.095,29.285C280.44,330.947,283.607,332.053,283.607,332.053z
					"/>
				<g>
					<path style="fill:#0E6389;" d="M290.626,260.642l-3.631-0.662l-37.661-25.883c-1.438-0.988-3.319-1.051-4.819-0.16
						l-5.849,3.471l-3.155,0.425v2.518l0.001,0c-0.001,0.63,0.308,1.259,0.926,1.624l43.748,25.803
						c1.341,0.791,3.007,0.789,4.347-0.005l5.342-3.168c0.51-0.303,0.756-0.831,0.744-1.356L290.626,260.642z"/>
					<path style="fill:#2E8CCC;" d="M295.262,259.494l-4.058-0.74l-42.096-28.931c-1.607-1.104-3.709-1.174-5.386-0.179
						l-6.537,3.879l-3.527,0.475v2.814l0.001,0c-0.001,0.704,0.344,1.408,1.035,1.815l48.899,28.841
						c1.499,0.884,3.361,0.882,4.858-0.006l5.971-3.541c0.57-0.338,0.845-0.929,0.831-1.516L295.262,259.494z"/>
					<path style="fill:#78C5F9;" d="M294.421,261.045l-5.971,3.541c-1.497,0.888-3.359,0.89-4.858,0.006l-48.899-28.841
						c-1.378-0.813-1.381-2.806-0.005-3.623l9.034-5.36c1.677-0.995,3.779-0.925,5.386,0.179l45.41,31.208
						C295.551,258.865,295.499,260.406,294.421,261.045z"/>
				</g>
				<path style="fill:#E8CAAF;" d="M281.226,254.771c0.11-0.631-1.663-2.202-1.663-2.202s1.295-0.229,0.521-1.14
					c-0.674-0.793-2.817-2.401-3.941-3.416c-1.124-1.014-6.956-3.118-7.185-3.038c-6.314-4.55-21.98-15.838-24.195-17.416
					c-2.785-1.984-17.251-19.796-17.251-19.796l-12.154,12.318c0,0,13.008,12.597,17.102,15.375
					c3.496,2.372,26.796,12.331,33.536,15.194c0.59,0.5,1.161,1.113,1.322,1.708c0.366,1.352,5.154,4.715,5.885,5.081
					c0.731,0.366,1.06-0.512,0.621-1.389c0,0-2.435-2.75-1.965-2.44c0.817,0.538,4.432,3.975,5.62,4.478
					c0.849,0.359,1.974-0.045,1.17-1.014c0,0,0.612,0.356,1.024,0.528c0.482,0.201,1.43-0.289,1.558-0.866
					c0.071-0.322-0.443-0.777-0.846-1.088C280.385,255.648,281.116,255.401,281.226,254.771z"/>
				<path style="fill:#FFFFFF;" d="M226.558,221.288c-1.237,0.825-2.702,1.676-4.456,2.518c-0.404,0.193-0.79,0.36-1.167,0.5
					c-11.94,4.571-14.256-13.914-14.256-13.914l-14.203-15.756c0,0,9.299-3.772,18.221-1.728
					c8.922,2.053,22.283,19.932,22.283,19.932S233.365,216.753,226.558,221.288z"/>
				<path style="fill:#F0F4F7;" d="M226.558,221.288c-1.237,0.825-2.702,1.676-4.456,2.518c-0.404,0.193-0.79,0.36-1.167,0.5
					l-7.167-3.237l2.904-10.387C216.671,210.682,223.472,218.382,226.558,221.288z"/>
				<path style="fill:#FFFFFF;" d="M239.278,246.729c-0.395,3.36-6.264,11.729-26.318,19.826c-0.404,0.167-0.825,0.316-1.255,0.456
					c0,0-0.009,0-0.018,0c-4.755,1.562-11.062,1.755-13.492-1.149c-1.667-1.983-1.491-4.079-4.509-9.334
					c-3.369-5.851-7.483-12.51-10.747-17.668c-2.316-3.676-4.211-6.588-5.106-7.939c-0.816-1.228-6.404-11.159-6.781-12.589
					c-0.869-3.334,1.649-11.264,8.825-16.344c2.062-1.456,10.861-7.422,14.808-8.01c9.79-1.447,13.791,3.448,15.791,5.492
					c2.272,2.29,7.273,14.712,15.651,28.354C230.76,235.21,239.673,243.395,239.278,246.729z"/>
				<path style="fill:#F0F4F7;" d="M211.688,267.012c-4.755,1.562-11.062,1.755-13.492-1.149c-1.667-1.983-1.491-4.079-4.509-9.334
					c-3.369-5.851-7.483-12.51-10.747-17.668l2.814-5.87c0,0,10.432,16.879,13.117,21.415c2.684,4.535,2.395,8.536,4.369,10.852
					C205.152,267.485,211.284,267.047,211.688,267.012z"/>
				<g>
					<path id="XMLID_8558_" style="fill:#D6A580;" d="M187.253,208.54c-6.098-1.252-8.861-5.396-8.861-5.396
						c2.124-2.24,4.544-3.724,7.069-5.392c2.161-1.427,4.496-2.234,5.728-2.566c0,0,4.873,2.545,5.581,6.637
						C197.51,206.1,192.477,209.613,187.253,208.54z"/>
					<g id="XMLID_8545_">
						<path id="XMLID_8552_" style="fill:#DEB08A;" d="M175.648,198.741l3.316,3.81c0,0,3.332,3.698,9.444,2.316
							c3.029-0.685,4.259-2.294,4.731-3.731c0.437-1.33,0.12-2.795-0.706-3.925l-3.12-4.269
							C189.313,192.941,174.817,192.14,175.648,198.741z"/>
						<path style="fill:#191968;" d="M181.82,167.687c0,0,2.772,4.361,3.399,5.644c0.841,1.718-0.123,3.893-0.123,3.893
							l-6.548-5.949L181.82,167.687z"/>
						<path id="XMLID_8550_" style="fill:#E8CAAF;" d="M192.701,188.336c1.181,3.442,0.205,6.105-3.803,8.513
							c-1.967,1.167-4.674,1.706-6.895,1.947c-0.903,0.082-1.684,0.138-2.344,0.168c-0.195,0.002-0.39,0.005-0.586,0.006
							c-0.171-0.023-0.342,0.003-0.489,0.005c-0.415-0.021-0.659-0.018-0.659-0.018c-17.187-1.326-12.748-7.231-14.782-13.002
							c-0.175-0.462-0.278-0.901-0.331-1.389c-0.077-0.366-0.105-0.781-0.109-1.172c-0.322-5.543,3.667-12.47,6.75-14.527
							c2.379-1.586,5.141-1.392,7.691-0.488c1.299,0.452,2.527,1.075,3.632,1.773c0.148,0.096,0.296,0.192,0.443,0.338
							c1.319,1.088,3.099,3.327,4.877,5.923c0.88,1.284,2.175,1.768,2.997,3.131C190.923,182.577,192.055,186.452,192.701,188.336z"
							/>
						<path style="fill:#191968;" d="M175.614,159.55c-1.763,1.919-11.548,6.433-15.352,8.9c-4.064,2.633-7.562,9.273-4.285,13.799
							c-2.796,3.29-0.736,6.568,2.14,9.311c5.719,5.456,13.212,7.699,16.598,8.481c0.784,0.181,1.193-0.178,1.536-0.608
							c-0.158-0.182-0.73-0.91-0.888-1.101c-1.583-1.733-3.648-2.501-5.851-3.143c-0.774-0.238-4.141-1.471-4.524-3.692
							c-0.085-0.49,0.055-2.559,1.846-2.942c2.65-0.238,5.383,2.758,6.37,3.445c0.671-0.702,0.872-0.906,1.262-1.408
							c-0.142-0.165-2.277-3.341-2.807-4.066c0.457-1.281,0.467-3.166,0.292-3.875c-0.256-1.042-1.098-2.787-1.098-2.787
							c3.51-1.709,10.975-5.929,12.009-7.72C185.281,168.59,178.296,159.74,175.614,159.55z"/>
					</g>
				</g>
				<path style="fill:#A9B2B7;" d="M192.271,276.984v15.269c0,4.554,2.325,8.793,6.166,11.241l0,0
					c1.275,0.813,2.68,1.033,3.987,0.811l0.067,0.398l1.998-1.165l-0.014-0.004c1.588-0.974,2.718-2.703,2.718-4.843v-12.179
					L192.271,276.984z"/>
				<path style="fill:#C9CED1;" d="M205.585,287.458v12.179c0,4.496-4.965,7.219-8.757,4.803v0
					c-3.841-2.448-6.166-6.687-6.166-11.241V277.93L205.585,287.458z"/>
				<g>
					<path style="fill:#0E6389;" d="M227.29,297.992l-3.631-0.662l-37.661-25.883c-1.438-0.988-3.319-1.051-4.819-0.16l-5.849,3.47
						l-3.155,0.425v2.518l0.001,0c-0.001,0.63,0.308,1.259,0.926,1.624l43.748,25.803c1.341,0.791,3.007,0.789,4.347-0.005
						l5.342-3.168c0.51-0.303,0.756-0.831,0.744-1.356L227.29,297.992z"/>
					<path style="fill:#2E8CCC;" d="M231.926,296.843l-4.058-0.74l-42.096-28.931c-1.607-1.104-3.709-1.174-5.386-0.179
						l-6.537,3.879l-3.527,0.475v2.814l0.001,0c-0.001,0.704,0.344,1.408,1.035,1.815l48.899,28.841
						c1.499,0.884,3.361,0.882,4.858-0.006l5.971-3.541c0.571-0.338,0.844-0.929,0.831-1.516L231.926,296.843z"/>
					<path style="fill:#78C5F9;" d="M231.085,298.394l-5.971,3.541c-1.497,0.888-3.359,0.89-4.859,0.006L171.356,273.1
						c-1.378-0.813-1.381-2.806-0.005-3.623l9.033-5.36c1.677-0.995,3.779-0.925,5.386,0.179l45.41,31.208
						C232.214,296.214,232.163,297.755,231.085,298.394z"/>
				</g>
				<path style="fill:#E8CAAF;" d="M219.616,291.628c0,0,0.714-0.55,0.085-1.074c-0.63-0.525-2.414-2.099-2.414-2.099
					s0.509-0.087,0.833-0.315c0.351-0.248,0.318-0.609,0.154-0.713c-0.732-0.463-1.721-1.364-2.687-2.204
					c-0.966-0.84-2.12-1.448-2.12-1.448c-1.616-0.399-3.653-0.512-4.178-0.764c-0.408-0.196-1.279-0.696-2.432-1.712l-19.418-20.386
					l-2.256-19.915h-18.733c0,0,3.127,22.429,7.755,26.789c3.723,3.507,21.137,14.471,27.807,18.625
					c1.036,0.645,1.856,1.562,2.491,2.604c0.48,0.788,1.276,1.65,2.585,2.223c1.385,0.606,5.117,2.823,6.482,2.844
					c1.364,0.021,1.376-0.667,1.376-0.667s0.96,0.373,1.708,0.517c1.038,0.201,1.308-0.566,1.308-0.566s0.64,0.403,1.246,0.391
					c0.608-0.012,1.484-0.149,1.577-0.882C220.829,292.518,219.616,291.628,219.616,291.628z"/>
				<path style="fill:#FFFFFF;" d="M178.392,203.144c0,0-11.559,9.371-14.301,17.376s0.768,25.331,0.768,25.331
					s6.947,3.257,14.475,1.573c7.856-1.757,8.105-4.132,8.105-4.132s-1.478-11.185-2.964-15.425"/>
				<path style="fill:#A9B2B7;" d="M201.123,300.046c0,1.952-1.583,2.584-3.535,1.411c-1.953-1.173-3.535-3.707-3.535-5.66
					c0-1.953,1.583-2.584,3.535-1.411C199.54,295.559,201.123,298.093,201.123,300.046z"/>
			</g>
			<g>
				<path style="fill:#F2CFA4;" d="M218.136,162.549c0,0-3.215,14.352-3.904,17.222c-0.689,2.87,4.765,4.994,7.75,4.707
					c2.985-0.287,5.97-3.846,7.004-7.578c1.033-3.731,2.016-10.505,2.016-10.505"/>
				<path style="fill:#170960;" d="M217.169,162.534c1.455,1.765,3.886,3.587,6.531,4.882c1.612,0.785,2.935,1.171,3.692,1.35
					c1.474-3.059,2.742-6.048,3.61-8.267c0.413-1.088,0.744-1.998,0.951-2.632l0.403-24.387c0,0-6.179,0.378-10.174,8.742
					C220.391,145.971,218.136,154.454,217.169,162.534z"/>
				<path style="fill:#0F0854;" d="M223.7,167.417c1.612,0.785,4.113,1.604,4.871,1.783c1.474-3.059,1.563-6.482,2.431-8.7
					c-0.317-0.785-0.592-1.35-0.73-1.447c-0.468-0.303-4.209-6.759-4.209-6.759S224.279,161.437,223.7,167.417z"/>
				<path style="fill:#170960;" d="M277.168,206.445c-0.386,2.43-1.035,5.571-7.808,7.097c-2.851,0.64-6.773,1-12.22,0.904
					c-18.405-0.298-21.046-4.167-21.721-5.755c-0.105-0.228-0.228-0.755-0.36-1.518c-0.755-4.255-1.334-13.317-2.272-18.686
					c-1.026-5.887-4.632-17.107-5.904-22.993c-2.272-10.492-0.667-17.993-0.491-20.712c0.018-0.579-2.641-3.29-2.518-3.816
					c0.93-3.702,4.079-6.474,7.808-7.325c1.737-0.404,3.755-0.807,5.158-0.886c0.404-0.018,0.833-0.044,1.29-0.044
					c2.465,0.474,5.088,0.904,7.676,1.456c1.667,0.325,3.325,0.728,4.939,1.237c0.325,0.096,0.649,0.202,1.009,0.298l1.535,0.579
					c2.369,0.93,4.027,1.693,5.334,2.342c0.605,0.307,1.132,0.579,1.614,0.86c0.325,0.176,0.632,0.377,0.93,0.553
					c0.281,0.175,0.579,0.351,0.886,0.553c0.123,0.079,0.272,0.175,0.43,0.281c0.018,0.026,0.044,0.026,0.07,0.044
					c0.026,0.026,0.053,0.026,0.105,0.053c0.149,0.132,0.351,0.228,0.526,0.351c0.404,0.281,0.851,0.579,1.307,0.939
					c0.605,0.421,1.211,0.877,1.842,1.404c0.404,0.307,0.781,0.632,1.132,0.956c0.026,0,0.026,0.026,0.026,0.026
					c0.623,0.579,1.456,1.588,2.386,3.123c0.404,0.658,0.807,1.386,1.211,2.246c0.281,0.553,0.553,1.158,0.781,1.781
					c0.123,1.992-0.377,4.132-0.904,6.071c-0.105,0.43-0.202,0.833-0.307,1.211c-0.807,3.421-1.816,6.825-2.834,10.203
					c-0.158,0.5-0.316,1.009-0.465,1.509c-0.123,0.447-0.272,0.904-0.447,1.36c0.605,3.623,1.886,9.466,4.281,14.001
					C274.913,193.215,277.747,202.971,277.168,206.445z"/>
				<path style="fill:#0F0854;" d="M277.168,206.445c-0.386,2.43-1.035,5.571-7.808,7.097c1.202-1.062,1.263-7.334-0.544-12.799
					c-1.807-5.474-8.229-21.449-8.229-21.449c-1.368,0.105-3.448-0.333-3.448-0.333c-1.649-5.702-3.219-17.098-3.219-17.098
					l13.905,7.413c-0.158,0.5-0.316,1.009-0.465,1.509c-0.123,0.447-0.272,0.904-0.447,1.36c0.605,3.623,1.886,9.466,4.281,14.001
					C274.913,193.215,277.747,202.971,277.168,206.445z"/>
				
					<linearGradient id="SVGID_00000141441107776647822880000017133320895429339798_" gradientUnits="userSpaceOnUse" x1="493.3735" y1="200.2206" x2="530.9985" y2="200.2206" gradientTransform="matrix(-1 0 0 1 763.5838 0)">
					<stop  offset="0" style="stop-color:#E7A327"/>
					<stop  offset="1" style="stop-color:#ECBB2C"/>
				</linearGradient>
				
					<line style="fill:url(#SVGID_00000141441107776647822880000017133320895429339798_);" x1="234.249" y1="200.741" x2="254.515" y2="199.7"/>
				<path style="fill:#F2CFA4;" d="M276.204,168.888c0,0,3.531,13.024,3.531,15.068c0,2.044-6.003,4.748-9.876,3.801
					c-3.874-0.947-8.12-14.553-8.12-14.553"/>
				<path style="fill:#170960;" d="M253.157,156.073c0.014,5.39,3.109,14.554,5.571,20.862c0,0,9.741,1.38,16.613-3.409
					c2.352-1.639,2.185-4.17,2.185-4.17c-0.67-2.739-5.561-17.37-5.561-17.384c-0.015-0.102-0.306-0.714-0.422-0.962
					c-1.719-3.496-3.886-4.11-5.652-4.327C260.153,145.98,253.127,150.362,253.157,156.073z"/>
				<path style="fill:#F2CFA4;" d="M278.928,179.61c0,0,2.907,11.504,1.208,13.02c-3.973,3.546-12.577,3.782-22.846,4.588
					c-10.269,0.806-17.799,1.256-17.799,1.256l-0.398-4.735c0,0,13.082-3.978,18.138-5.819c5.181-1.887,11.495-4.209,11.495-4.209"
					/>
				<path style="fill:#D5AB80;" d="M238.186,135.519c0,0-3.838,3.663-0.771,6.437l1.794-3.861l-1.717-1.556"/>
				<path style="fill:#E2B888;" d="M247.914,124.919l4.93,11.193c0,0-10.9,9.456-15.428,5.843c1.409-2.858-1.911-7.033-3.654-10.186
					l7.928-3.286L247.914,124.919z"/>
				<path style="fill:#F2CFA4;" d="M215.653,173.581c0,0-5.263,1.636-9.145,3.735c-3.882,2.098-13.22,6.16-13.22,6.16l0.944,5.566
					c0,0,11.122,0.394,19.096,0c7.974-0.394,12.581-5.555,14.024-8.547C228.794,177.503,215.653,173.581,215.653,173.581z"/>
				<g>
					<path style="fill:#F2CFA4;" d="M251.542,117.963c0,3.825-0.474,5.237-2.974,8.062c-1.597,1.798-2.237,1.377-2.237,1.377
						s-0.974,1.86-2.807,3.956c-1.079,1.237-2.448,2.544-4.106,3.605c-4.474,2.869-6.869,2.746-9.527,1.57
						c-2.658-1.167-3.114-2.658-4.606-9.255c-0.14-0.64-0.263-1.281-0.368-1.921c-0.982-6-0.403-11.896-0.403-11.896
						c0.789-4.272,2.667-8.299,6.816-10.422c4.15-2.132,13.299-3.728,16.273,1.272C250.586,109.313,251.542,114.129,251.542,117.963
						z"/>
					<path style="fill:#191968;" d="M229.157,118.256c4.021,0,7.692-1.719,7.692-1.719c0.845,3.525,3.307,3.846,4.487,4.487
						c1.166,0.656,1.77,4.041,1.77,4.041l1.177-0.715c0,0-0.048-2.655,0.476-4.374c0.554-1.719,3.38-3.045,4.968-0.554
						c1.311,2.054-0.312,4.947-1.274,6.725l0.498,1.132c1.326-1.151,3.427-4.433,3.951-11.834v-0.015
						c-0.044-2.608-0.335-5.521-1.005-8.639c-0.539-2.535-3.351-2.68-3.759-3.365c-1.967-3.307-7.616-8.026-16.115-5.01
						c0,0-8.491,2.889-11.021,10.089c-0.77,2.192-0.462,4.74-0.154,7.775C220.94,117.152,228.181,118.256,229.157,118.256z"/>
				</g>
				<path style="fill:#FFFFFF;" d="M241.826,204.798c-0.002-0.004-0.006-0.007-0.008-0.011l-9.566-20.75l-4.463,2.057l9.569,20.757
					l0.004-0.002c0.001,0.002,0.001,0.004,0.001,0.005c0.279,0.605,1.504,0.636,2.737,0.068
					C241.332,206.355,242.105,205.403,241.826,204.798z"/>
				<path style="fill:#4BCCEF;" d="M246.209,198.277c-0.623,0.053-2.93,0.518-2.93,0.518c-1.114,0.904-3.535,2.439-4.869,2.948
					c-0.886,0.342-3.123,0.158-3.807-0.281c-1.211-0.79-3.43-4.29-3.597-5.308c-0.175-1.018,0.009-2.035,0.377-2.263
					c0.333,0.281,1.237,0.474,2.465,0.447c0.684-0.017,1.439-0.193,2-0.342c0.263-0.097,0.693-0.57,0.676-0.649
					c-0.026-0.114-0.07-0.219-0.149-0.316l-1.474-3.237c1.412,0.167,2.913,0.386,3.141,0.474c0.079,0.026,0.184,0.07,0.307,0.123
					c0.675,0.29,1.939,0.904,3.053,1.579c1.658,0.281,3.763-0.289,3.763-0.289C245.849,191.654,247.621,198.154,246.209,198.277z"/>
			</g>
			<path style="fill:#3CC6E5;" d="M190.711,184.114l-4.167,1.583c0,0-3.399,2.529-4.488,2.858c-1.089,0.329-2.283,0.137-2.311-0.521
				c-0.027-0.658,2.248-2.221,3.617-3.125c1.369-0.905,2.853-1.946,4.255-2.143c1.402-0.197,4.474-0.26,4.474-0.26
				s2.943,0.073,5.145-0.914c0,0,1.764,1.005,2.257,4.048c0.363,2.236-0.53,3.577-0.53,3.577s-2.778-0.132-4.459,0.417
				c-1.681,0.548-0.146-3.23-0.621-3.826"/>
			<path style="fill:#4BCCEF;" d="M196.112,185.411c0.139,0.741,0,1.956-0.475,2.979s-1.986,2.159-2.949,3.035
				c-0.962,0.876-1.036,1.497-1.547,0.876c-0.512-0.621-0.439-0.877-0.183-1.645c0.256-0.768,1.228-2.17,1.33-2.991
				c0.102-0.822-0.471-1.548-0.983-1.742c-0.512-0.194-2.467-0.088-3.491,0.203c-1.023,0.291-3.29,2.593-4.861,2.703
				c-1.572,0.11-1.791-0.731-1.243-1.279c0.548-0.548,3.067-2.52,4.13-3.326c1.063-0.806,4.057-1.225,5.41-1.407
				C192.603,182.633,195.628,182.829,196.112,185.411z"/>
			<path style="fill:#4BCCEF;" d="M232.245,184.022c0.279,0.605-0.494,1.557-1.726,2.125c-1.232,0.568-2.458,0.538-2.737-0.068
				c-0.279-0.605,0.494-1.557,1.726-2.125C230.74,183.386,231.966,183.417,232.245,184.022z"/>
			<path style="fill:#4BCCEF;" d="M245.915,126.616c0,0-1.55,2.11-2.577,3.379c-0.286-1.756-0.789-4.067-1.105-5.459
				c0.729-0.711,2.12-2.132,2.12-2.132l0.163-1.355c-0.366,0.428-2.562,2.274-2.562,2.274s-4.281,3.369-8.817,3.957
				c-4.527,0.588-8.22-1.939-8.22-1.939v0.018c-0.155,0.545-0.14,1.279,0,1.92c1.491,6.597,2.316,8.09,4.974,9.257
				c2.658,1.176,5.053,1.298,9.527-1.57c1.658-1.061,3.027-2.369,4.106-3.605c0,0,1.907-2.171,2.807-3.956
				C246.331,127.402,245.97,127.146,245.915,126.616z"/>
		</g>
		<g>
			<g>
				<path style="fill:#DA9C30;" d="M385.618,235.169c-3.906,5.639-9.478,12.728-9.478,12.728s-0.433-0.768-1.284-1.653
					c1.619-2.212,6.149-8.545,5.691-10.682c-0.049-0.239-0.123-0.521-0.221-0.833L385.618,235.169z"/>
			</g>
			<g>
				<path style="fill:#1B115E;" d="M389.527,350.187c0,0,0.084,1.935-0.118,2.33c-0.203,0.395-3.163,2.676-3.668,2.841
					c-0.505,0.165-0.316-0.087-0.782,0.227c-0.465,0.314-2.457,1.953-3.875,2.928c-1.418,0.975-3.155,1.881-5.335,2.183
					c-2.18,0.301-5.568-0.322-5.83-2.703c-0.262-2.381,3.253-2.835,3.253-2.835"/>
				<path style="fill:#FBFBF9;" d="M381.728,342.544c-0.5,0.309-0.77,0.29-1.616,1.707c-0.737,1.234-3.19,5.039-5.442,6.606
					c-2.252,1.567-4.309,3.282-4.589,4.619c-0.28,1.337-0.086,3.095,2.141,3.873c3.173,1.109,6.659-0.514,9.068-2.281
					c2.409-1.767,5.565-4.217,7.17-5.45c2.378-1.828,0.978-7.083,0.021-8.195C387.208,341.945,383.329,341.555,381.728,342.544z"/>
			</g>
			<path style="fill:#F2CFA4;" d="M396.413,234.361c0,0-22.294-1.518-22.748,3.977c-0.401,4.85-0.209,11.357-0.209,11.357
				s0.356,24.525,1.221,39.14h-0.001c0.042,2.37,0.444,6.615,0.624,7.958c1.548,11.503,5.607,47.331,5.607,47.331
				c-0.026,0.353,0.097,0.697,0.352,0.942c0.853,0.822,3.079,2.273,6.38-0.542c0.248-0.212,0.868-0.837,0.921-1.159l0.388-1.928
				c0,0,4.088-30.979,3.981-33.89c-0.3-8.19-1.723-13.48-2.741-17.03c0.257-2.603,1.538-10.714,3.991-18.964
				c2.024-6.786,4.012-13.851,4.85-18.578C400.966,241.932,396.413,234.361,396.413,234.361z"/>
			<g>
				<path style="fill:#1B115E;" d="M408.897,354.241c0,0-0.018,1.908-0.229,2.291c-0.211,0.384-3.198,2.55-3.701,2.699
					c-0.503,0.149-0.31-0.094-0.778,0.202c-0.468,0.296-2.481,1.857-3.909,2.779c-1.428,0.922-3.167,1.767-5.328,2.002
					c-2.161,0.235-5.487-0.477-5.677-2.834c-0.191-2.357,3.291-2.705,3.291-2.705"/>
				<path style="fill:#FBFBF9;" d="M401.357,346.462c0,0-0.768,0.264-1.643,1.639c-0.762,1.197-3.293,4.882-5.56,6.365
					c-2.267,1.483-4.254,3.041-4.569,4.353c-0.315,1.312-0.266,3.127,1.91,3.959c3.1,1.185,6.587-0.317,9.015-1.992
					c2.428-1.675,5.614-4.003,7.232-5.175c2.399-1.736,1.42-6.882,0.578-8.061C407.477,346.371,401.357,346.462,401.357,346.462z"/>
				<path style="fill:#F6DFBC;" d="M399.637,343.365l0.8,4.385c-0.026,0.353,0.245,1.07,0.499,1.315
					c0.853,0.822,3.366,2.053,6.667-0.761c0.248-0.212,0.411-0.517,0.465-0.839l0.241-2.935"/>
			</g>
			<path style="fill:#F6DFBC;" d="M412.841,243.759c0,0-26.657-4.132-25.986,1.349c0.671,5.48,3.716,14.362,3.716,14.362
				s-0.142,22.808,0.508,37.445c0,3.308,9.054,48.966,9.054,48.966c0.41,1.403,2.937,0.729,4.006,0.523
				c2.802-0.539,4.169-1.874,4.169-1.874s2.66-27.803,1.417-35.534c-1.04-6.474-2.081-9.558-2.892-11.961
				c2.18-8.738,7.115-26.122,8.616-34.664C417.39,251.334,412.841,243.759,412.841,243.759z"/>
			<path style="fill:#191968;" d="M380.049,167.571c-0.09,2.532,0.376,11.158,0.376,11.158s5.014-2.952,7.736-2.907
				c2.722,0.045-1.566-8.02-1.566-8.02"/>
			<path style="fill:#F6DFBC;" d="M384.898,194.819c0,0,8.035,10.065,7.023,12.318c-0.669,1.49-11.424,8.756-21.205,14.149
				c-9.781,5.393-16.32,9.819-16.32,9.819l-2.186-3.566c0,0,10.547-9.388,15.617-13.831c4.496-3.941,10.63-9.158,10.63-9.158"/>
			<path style="fill:#FBFBF9;" d="M378.15,217.961l-10.816,5.425c0-0.541-0.052-1.029-0.14-1.465
				c-0.715-3.908-4.274-4.239-4.274-4.239c2.372-1.954,12.264-11.112,12.264-11.112c2.529,3.262,2.966,7.641,3,9.909
				C378.202,217.385,378.15,217.961,378.15,217.961z"/>
			<path style="fill:#E8E8E8;" d="M378.15,217.961l-10.816,5.425c0-0.541-0.052-1.029-0.14-1.465
				c1.082-0.663,2.983-1.814,4.919-3.053c2.931-1.884,4.78-3.628,4.78-3.628l1.291,1.238
				C378.202,217.385,378.15,217.961,378.15,217.961z"/>
			<path style="fill:#FBFBF9;" d="M386.085,210.42c0.084-4.918,0.543-17.395-0.103-26.106c-0.646-8.711-6.866-8.131-6.866-8.131
				c-4.028,0.45-7.006,4.58-7.165,10.791c-0.094,3.419,1.54,11.379,2.448,17.861c0.393,2.782,2.055,8.909,2.064,9.057l9.432,3.681
				C386.125,216.05,386.033,213.825,386.085,210.42z"/>
			<path style="fill:#FBFBF9;" d="M415.931,260.798c-0.679,4.403-2.054,10.915-3.66,16.972c0,0-1.143,0.879-4.571,1.55
				c-2.253,0.447-5.497,0.807-10.06,0.767c-9.149-0.072-20.024-5.993-24.076-8.406c-0.456-4.898-0.871-9.141-0.871-12.601
				c0-8.19,0.448-15.238,1.646-20.728l-0.008-0.008c0,0,2.893-11.57,1.622-25.426c-0.096-1.071-0.328-2.109-0.695-3.108h-0.008
				c-0.392-1.095-0.943-2.126-1.654-3.076c-0.831-1.095-1.782-2.589-2.541-4.411c0-0.008-0.008-0.008-0.008-0.008
				c0-0.008,0-0.008,0-0.008c-0.12-0.304-0.248-0.607-0.359-0.919c-1.638-4.603,2.094-9.333,3.58-13.152
				c0.815-2.093,0.376-4.563,0.232-6.904c-0.184-2.885,2.165-5.274,5.042-5.138c8.15,0.383,26.425,2.03,31.411,9.229
				c4.882,7.048-2.261,23.333-3.428,29.421c-0.767,3.979-1.023,8.622-0.679,12.322c0.184,1.974,0.535,3.668,1.063,4.858
				C409.243,235.012,417.753,248.98,415.931,260.798z"/>
			<path style="fill:#E8E8E8;" d="M415.931,260.798c-0.679,4.403-2.054,10.915-3.66,16.972c0,0-1.143,0.879-4.571,1.55
				c1.246-6.56,4.872-17.669,3.024-27.308c-1.198-6.248-8.306-19.117-8.306-19.117l1.614-7.088c0,0,1.374,0.599,2.813,1.358
				c0.184,1.974,0.535,3.668,1.063,4.858C409.243,235.012,417.753,248.98,415.931,260.798z"/>
			<path style="fill:#E8E8E8;" d="M378.811,209.115c2.519,0.855,8.09,2.578,12.855,3.946c0.016,0.002,2.929,0.302,4.999-0.574
				c2.076-0.878,2.663-7.591,2.663-7.592c0.041-3.138,0.095-5.385,0.095-5.385l7.421,14.83l-2.108,11.631l-13.072,5.62l7.758-9.65
				v-2.059c-0.001-0.021-0.002-0.042-0.003-0.064c-0.037-0.839-0.589-1.559-1.384-1.831c-2.334-0.799-6.821-2.984-9.784-3.872
				c-3.897-1.171-10.922-2.988-12.992-4.309h-0.009c-0.393-1.096-0.946-2.126-1.658-3.073c-0.824-1.096-1.78-2.595-2.538-4.412
				C371.243,202.633,374.344,207.607,378.811,209.115z"/>
			<path style="fill:#EBC69B;" d="M384.657,179.759c0,0-2.224,2.447,0.06,3.732l1.03-2.15L384.657,179.759z"/>
			<path style="fill:#F2CFA4;" d="M393.542,167.35c0,0,3.133,9.302,3.214,10.881c0.081,1.579-5.09,8.208-12.038,5.26
				c0,0,0.387-8.995-2.369-12.416"/>
			<path style="fill:#F6DFBC;" d="M377.154,151.978c0,0-1.459,7.631,0.311,14.461c1.77,6.831,4.66,9.554,6.21,9.701
				c1.55,0.146,10.1-2.982,12.979-9.373c2.879-6.392,3.315-11.726,2.264-15.604c-1.052-3.879-7.603-7.403-12.291-6.746
				C381.941,145.074,377.77,147.518,377.154,151.978z"/>
			<path style="fill:#191968;" d="M400.017,148.023c-6.693-8.554-17.987-5.443-22.306,0.94c-0.105,0.169-0.2,0.314-0.296,0.475
				c-1.947,3.441,0.152,7.766,4,8.7c1.834,0.451,12.303,1.368,12.433,4.42c0.04,0.943,0.006,1.952-0.013,3.073l-0.007,0.205
				c-0.065,1.824,0.069,7.315,0.069,7.315s0.366,3.301,1.398,4.35c1.79,1.818,3.845,1.229,6.708,2.277
				C402.002,179.777,406.727,156.598,400.017,148.023z"/>
			<path style="fill:#4BCCEF;" d="M392.996,164.54c0,0,0.699-0.552,0.964-0.665c0.968-0.414,1.525-0.234,1.525-0.234l-1.607,1.253
				l-1.298,1.249L392.996,164.54z"/>
			<path style="fill:#4BCCEF;" d="M393.371,170.606c0,0,1.389-1.457,1.605-1.636l-0.802-0.226l-1.153,0.931L393.371,170.606z"/>
			<path style="fill:#F6DFBC;" d="M393.633,165.13c0,0,1.044-1.786,2.524-1.492c1.468,0.291,1.146,2.743,0.397,4.224
				c-1.012,2-2.772,0.974-2.772,0.974"/>
			<g>
				<path style="fill:#2E8CCC;" d="M338.011,209.389l1.178-0.966l0.002,0.004c0.108-0.122,0.287-0.18,0.458-0.076l31.779,19.246
					c0.49,0.296,0.896,0.712,1.181,1.209l14.14,24.617c0.07,0.122,0.038,0.246-0.036,0.334l0.004,0.002l-0.009,0.008
					c-0.012,0.013-0.025,0.021-0.04,0.033l-1.192,0.986l-0.548-0.754l-1.532-1.98l0.062,0.032l-29.317-17.761
					c-0.357-0.217-0.654-0.52-0.862-0.883l-12.903-22.447L338.011,209.389z"/>
				<path style="fill:#78C5F9;" d="M337.91,209.861l14.137,24.594c0.208,0.362,0.505,0.666,0.862,0.882l32.194,19.504
					c0.263,0.16,0.566-0.136,0.413-0.403l-14.14-24.617c-0.285-0.496-0.691-0.912-1.181-1.209l-31.78-19.246
					C338.093,209.171,337.721,209.534,337.91,209.861z"/>
				<path style="fill:#F2CFA4;" d="M347.526,226.591c0,0,2.606,0.905,3.513,2.211c0.907,1.306,1.233,3.555,1.161,3.918
					c-0.072,0.363-1.024,0.222-1.024,0.222s-1.697-0.422-2.64-2.09C347.593,229.183,346.559,227.532,347.526,226.591z"/>
			</g>
			<g>
				<path style="fill:#F6DFBC;" d="M396.665,237.452c0,0-8.574,3.891-10.597,6.128c-0.041,0.028-5.968-3.872-5.968-3.872
					c0.303-0.124,0.605-0.234,0.894-0.344c2.903-1.059,11.213-7.319,11.213-7.319L396.665,237.452z"/>
				<path style="fill:#F6DFBC;" d="M385.99,236.516c0,0-1.708,1.195-1.985,1.302c-0.276,0.107-1.706-0.047-2.941,0.592
					c-1.235,0.64-1.91,2.024-2.646,2.31c-0.737,0.286-3.268,0.585-3.941,1.309c-0.672,0.724,2.372,5.465,3.339,6.043
					c0.967,0.578,3.318,0.222,5.159-0.494c1.841-0.716,2.784-3.682,3.59-4.472c0.806-0.79,2.369-1.745,2.369-1.745"/>
				<path style="fill:#F6DFBC;" d="M382.673,237.94c0,0-2.669-0.05-3.235,0.079c-0.566,0.13-2.412,1.327-2.525,1.538
					c-0.113,0.21,0.308,0.842,1.084,0.663c0.777-0.178,2.364-0.202,2.364-0.202"/>
				<path style="fill:#FBFBF9;" d="M407.284,183.288c0,0,5.282-0.04,5.927,8.669c0.645,8.709,0.185,21.184,0.105,26.103
					c-0.081,4.919,0.165,7.412-0.731,8.813c-1.721,2.69-19.032,13.145-19.032,13.145s-0.645-4.355-4.435-6.129
					c0,0,7.169-6.498,11.943-10.61c0.847-0.73,1.255-1.842,1.085-2.946c-0.81-5.248-3.099-20.598-2.966-25.714
					C399.341,188.409,403.252,183.732,407.284,183.288z"/>
			</g>
			<path style="fill:#191968;" d="M376.793,153.37c0,0-1.863,3.536-0.042,7.022c0,0,0.392-4.464,3.083-5.174"/>
			<path style="fill:#4BCCEF;" d="M377.581,166.872c0,0,2.723,3.347,8.424,1.139c4.869-1.886,6.992-3.471,6.992-3.471l0.375,6.066
				c0,0-3.778,4.557-7.799,5.579c-3.594,0.914-6.115-1.541-7.824-7.308C377.545,168.192,377.481,167.571,377.581,166.872z"/>
		</g>
		<g>
			<g>
				
					<linearGradient id="SVGID_00000133495982442342914100000001577197447840041874_" gradientUnits="userSpaceOnUse" x1="208.4103" y1="168.0528" x2="261.7635" y2="168.0528">
					<stop  offset="0" style="stop-color:#FFFFFF;stop-opacity:0"/>
					<stop  offset="1" style="stop-color:#FFFFFF"/>
				</linearGradient>
				<polygon style="opacity:0.2;fill:url(#SVGID_00000133495982442342914100000001577197447840041874_);" points="267.205,138.849 
					207.44,138.849 207.44,197.257 267.205,176.875 				"/>
				
					<linearGradient id="SVGID_00000047743848376669352910000011271017950825654181_" gradientUnits="userSpaceOnUse" x1="256.9004" y1="108.7532" x2="289.6618" y2="162.4901">
					<stop  offset="0" style="stop-color:#FFFFFF;stop-opacity:0"/>
					<stop  offset="1" style="stop-color:#FFFFFF"/>
				</linearGradient>
				<polygon style="fill:url(#SVGID_00000047743848376669352910000011271017950825654181_);" points="267.205,138.849 
					207.44,138.849 307.313,80.219 314.395,110.858 				"/>
				<polygon style="fill:#95CEFC;" points="322.047,115.714 274.857,143.698 267.205,138.849 314.395,110.858 				"/>
				<polygon style="fill:#ABDDFF;" points="267.205,138.849 267.205,176.875 274.857,181.724 274.857,143.698 				"/>
				<polygon style="fill:#5CB8EA;" points="322.047,115.714 322.047,153.74 274.857,181.724 274.857,143.698 				"/>
				<polygon style="fill:#3CA5D3;" points="320.399,123.146 320.399,152.71 283.71,174.467 283.71,144.903 				"/>
				<polygon style="fill:#3CACD3;" points="274.857,143.698 283.71,144.903 283.71,174.467 274.857,181.724 				"/>
				<polygon style="fill:#50C3EA;" points="322.047,115.714 320.399,123.146 283.71,144.903 274.857,143.698 				"/>
				<polygon style="fill:#2C92B5;" points="320.399,152.71 322.047,153.74 274.857,181.724 283.71,174.467 				"/>
			</g>
			<g>
				<g>
					<path style="fill:#D2EFFF;" d="M353.229,87.972c0,0.364-0.104,0.664-0.273,0.859c0,0,0,0.013-0.013,0.013
						c-0.078,0.065-0.156,0.117-0.247,0.169l-0.104,0.065l-51.013,30.243l-2.954-4.359l51.065-30.217l0.338-0.208h0.013
						c0.338-0.091,0.768-0.013,1.249,0.273C352.357,85.46,353.229,86.866,353.229,87.972z"/>
				</g>
				<path style="fill:#1D97B7;" d="M302.055,118.291c0,1.106-0.865,1.483-1.932,0.842c-1.067-0.641-1.932-2.058-1.932-3.164
					c0-1.106,0.865-1.483,1.932-0.842C301.189,115.769,302.055,117.185,302.055,118.291z"/>
			</g>
			<g>
				<g>
					<path style="fill:#ABDDFF;" d="M304.962,118.168c0,0.649-0.185,1.181-0.486,1.529c0,0,0,0.023-0.023,0.023
						c-0.139,0.116-0.278,0.208-0.44,0.301l-0.185,0.116l-11.188,6.673l-4.688-8.004l10.711-6.381l0.602-0.371h0.023
						c0.602-0.162,1.366-0.023,2.223,0.486C303.41,113.698,304.962,116.199,304.962,118.168z"/>
				</g>
				<path style="fill:#1D97B7;" d="M293.831,124.847c0,1.969-1.54,2.639-3.439,1.498c-1.899-1.141-3.439-3.662-3.439-5.631
					c0-1.969,1.54-2.639,3.439-1.498C292.292,120.358,293.831,122.879,293.831,124.847z"/>
			</g>
		</g>
		<g>
			<path style="fill:#FFFFFF;" d="M135.369,302.426v65.48c0,0.462,0.841,0.837,1.878,0.837s1.878-0.375,1.878-0.837v-65.48H135.369z
				"/>
			<path style="fill:#FFFFFF;" d="M199.102,306.782v65.48c0,0.462,0.841,0.837,1.878,0.837c1.037,0,1.878-0.375,1.878-0.837v-65.48
				H199.102z"/>
			<path style="fill:#FFFFFF;" d="M169.003,324.14v65.48c0,0.462,0.841,0.837,1.878,0.837c1.037,0,1.878-0.375,1.878-0.837v-65.48
				H169.003z"/>
			<g>
				<g>
					<path style="fill:#FFFFFF;" d="M171.048,374.074c-0.622,0-1.243-0.176-1.793-0.527l-34.206-21.796
						c-0.663-0.422-1.052-1.144-1.04-1.931c0.012-0.787,0.424-1.497,1.101-1.899l30.143-17.871c1.089-0.644,2.425-0.622,3.492,0.055
						l34.216,21.788c0.666,0.424,1.055,1.147,1.043,1.934c-0.012,0.785-0.423,1.492-1.099,1.893l-30.16,17.885
						C172.219,373.918,171.633,374.074,171.048,374.074z M166.954,331.873c-0.184,0-0.368,0.049-0.533,0.147l-30.143,17.871
						l34.208,21.726c0.335,0.213,0.753,0.219,1.091,0.02l30.115-17.859l-34.177-21.74
						C167.343,331.929,167.149,331.873,166.954,331.873z M201.737,353.751l0.584,0.985L201.737,353.751L201.737,353.751
						L201.737,353.751z"/>
				</g>
			</g>
			<path style="fill:#E1E7EA;" d="M164.904,281.762v65.48c0,0.462,0.841,0.837,1.878,0.837c1.037,0,1.878-0.375,1.878-0.837v-65.48
				H164.904z"/>
			<path style="fill:#2E8CCC;" d="M204.434,309.433v-1.465l0.003-2.974l-36.348-18.062c-0.729-0.464-1.657-0.479-2.4-0.038
				l-32.081,14.053v4.141c-0.051,0.193-0.049,0.397,0,0.59l0,0l0,0c0.069,0.268,0.231,0.517,0.495,0.685l35.808,22.817
				c0.729,0.465,1.654,0.481,2.398,0.04c5.199-3.083,25.655-15.214,31.572-18.722C204.281,310.26,204.461,309.841,204.434,309.433z"
				/>
			<g>
				<path style="fill:#95CEFC;" d="M203.881,306.057c-5.917,3.509-26.373,15.639-31.572,18.722c-0.744,0.441-1.669,0.424-2.398-0.04
					l-35.808-22.817c-0.726-0.463-0.709-1.529,0.032-1.968l31.554-18.708c0.743-0.441,1.671-0.426,2.4,0.038l35.818,22.807
					C204.633,304.554,204.621,305.617,203.881,306.057z"/>
			</g>
		</g>
		<g>
			<g>
				<path style="fill:#4E669B;" d="M194.693,305.408L194.693,305.408v-2.458h-2.421v0.52l-24.572-14.255
					c-0.956-0.555-2.136-0.555-3.092,0l-18.28,10.605v-0.456h-2.421v2.496h0.026c0.031,0.274,0.162,0.54,0.435,0.698l26.532,15.392
					c0.956,0.555,2.136,0.555,3.092,0l20.24-11.742c0.294-0.171,0.439-0.464,0.451-0.762h0.01V305.408z"/>
				<path style="fill:#FFFFFF;" d="M194.232,303.812l-20.24,11.742c-0.956,0.555-2.136,0.555-3.092,0l-26.532-15.392
					c-0.614-0.356-0.614-1.244,0-1.6l20.241-11.742c0.956-0.555,2.136-0.555,3.092,0l26.532,15.392
					C194.846,302.569,194.846,303.456,194.232,303.812z"/>
				<path style="fill:#61B4F2;" d="M193.6,303.264l-1.511,0.879l-18.585,10.785c-0.755,0.434-1.696,0.434-2.452,0l-24.541-14.239
					l-1.511-0.879c-0.272-0.148-0.272-0.545,0-0.706l20.084-11.651c0.768-0.446,1.709-0.446,2.464,0l26.052,15.106
					C193.872,302.719,193.872,303.115,193.6,303.264z"/>
				<path style="fill:#94CCFF;" d="M192.089,304.143l-18.585,10.785c-0.755,0.434-1.696,0.434-2.452,0l-24.541-14.239l18.573-10.785
					c0.768-0.433,1.709-0.433,2.464,0L192.089,304.143z"/>
			</g>
			<g>
				<path style="fill:#FFFFFF;" d="M153.259,301.288c-0.094,0-0.176-0.024-0.244-0.072c-0.002,0.003-0.281-0.149-0.281-0.149
					c-0.161-0.094-0.251-0.305-0.251-0.595c-0.002-0.672,0.491-1.526,1.076-1.864c0.155-0.089,0.305-0.136,0.435-0.136
					c0.082,0,0.154,0.018,0.217,0.054l0.305,0.167c0.162,0.093,0.252,0.304,0.252,0.595c0.002,0.673-0.491,1.527-1.077,1.865
					C153.538,301.241,153.389,301.288,153.259,301.288L153.259,301.288z"/>
				<path style="fill:#4478AB;" d="M153.257,301.289c-0.292,0-0.467-0.243-0.468-0.649c-0.002-0.672,0.491-1.526,1.076-1.864
					c0.154-0.089,0.305-0.136,0.435-0.136c0.292,0,0.466,0.242,0.468,0.649c0.002,0.673-0.491,1.527-1.077,1.865
					C153.537,301.242,153.386,301.289,153.257,301.289z"/>
				<path style="fill:#FFFFFF;" d="M157.839,301.779l-0.695,0.631l-3.568-2.096c-0.057-0.034-0.093-0.104-0.093-0.204
					c-0.001-0.202,0.141-0.448,0.317-0.55c0.088-0.051,0.168-0.055,0.226-0.022L157.839,301.779z"/>
				<path style="fill:#FFFFFF;" d="M159.779,300.748l0.122-0.046l-0.355-0.214l-0.023-0.014c-0.109-0.069-0.21-0.087-0.356-0.087
					c-0.22,0-0.473,0.08-0.735,0.23c-0.249,0.143-0.489,0.343-0.708,0.579c-0.334,0.361-0.621,0.81-0.817,1.275
					c-0.186,0.433-0.294,0.882-0.292,1.292c0.001,0.482,0.118,0.813,0.376,0.976l0.019,0.009l0.349,0.21l-0.016-0.112
					c0.022,0.002,0.039,0.014,0.062,0.014c0.22,0,0.473-0.08,0.733-0.231c0.349-0.2,0.677-0.508,0.955-0.874
					c0.309-0.401,0.556-0.871,0.706-1.341c0.103-0.318,0.16-0.636,0.158-0.933C159.956,301.175,159.889,300.933,159.779,300.748z"/>
				<g>
					<path style="fill:#4478AB;" d="M160.149,302.626c0.103-0.318,0.16-0.636,0.158-0.933c-0.001-0.687-0.297-1.096-0.79-1.096
						c-0.22,0-0.473,0.08-0.734,0.231c-0.249,0.143-0.489,0.343-0.708,0.579c-0.334,0.361-0.621,0.81-0.818,1.275
						c-0.186,0.433-0.293,0.882-0.292,1.292c0.001,0.687,0.298,1.097,0.79,1.097c0.22,0,0.473-0.08,0.733-0.231
						c0.349-0.2,0.678-0.508,0.956-0.874C159.752,303.566,160,303.096,160.149,302.626z"/>
				</g>
				<path style="opacity:0.75;fill:#FFFFFF;" d="M168.868,307.486c0.003,0.744-0.52,1.65-1.167,2.023
					c-0.346,0.199-0.656,0.205-0.872,0.055c0.013,0.009,0.025,0.019,0.038,0.026l-8.978-5.217c-0.21-0.122-0.341-0.382-0.342-0.752
					c-0.002-0.743,0.52-1.649,1.167-2.022c0.326-0.188,0.62-0.206,0.834-0.082l1.459,0.848l0.181,0.105l0.475,0.277l0.184,0.106
					c0.001,0.001,0.475,0.278,0.475,0.278c0.002,0,0.185,0.106,0.185,0.106l0.474,0.276l0.186,0.108l0.471,0.274
					c0.003,0,0.185,0.108,0.185,0.108c0.002,0.001,0.471,0.274,0.471,0.274c0.001,0,0.191,0.11,0.191,0.11
					c0.001,0.001,0.469,0.272,0.469,0.272l0.19,0.111l0.464,0.271c0.002,0,0.188,0.108,0.188,0.108
					c0.003,0.001,0.476,0.276,0.476,0.276l0.193,0.112l0.458,0.269c0.005,0,0.199,0.113,0.199,0.113l0.462,0.268l0.197,0.115
					l0.742,0.432C168.736,306.857,168.867,307.116,168.868,307.486z"/>
				<path style="fill:#FFFFFF;" d="M167.692,306.818c0.647-0.374,1.174-0.074,1.176,0.669c0.002,0.744-0.521,1.649-1.168,2.023
					c-0.647,0.373-1.173,0.074-1.175-0.67C166.523,308.096,167.046,307.191,167.692,306.818z"/>
				<g>
					<path style="fill:#FFFFFF;" d="M159.615,302.823c0.061-0.189,0.094-0.377,0.094-0.552c-0.001-0.407-0.176-0.649-0.468-0.649
						c-0.13,0-0.28,0.048-0.435,0.137c-0.147,0.085-0.289,0.203-0.419,0.343c-0.197,0.214-0.368,0.48-0.484,0.755
						c-0.11,0.257-0.174,0.522-0.173,0.765c0.001,0.407,0.177,0.65,0.468,0.65c0.13,0,0.28-0.047,0.434-0.137
						c0.206-0.118,0.401-0.301,0.566-0.518C159.38,303.379,159.526,303.101,159.615,302.823z"/>
				</g>
				<path style="opacity:0.5;fill:#29ABE2;" d="M162.725,306.906c-0.292,0-0.467-0.243-0.468-0.649
					c-0.002-0.672,0.491-1.526,1.076-1.864c0.154-0.089,0.305-0.136,0.435-0.136c0.292,0,0.467,0.242,0.468,0.648
					c0.002,0.673-0.491,1.527-1.077,1.865C163.005,306.859,162.855,306.906,162.725,306.906z"/>
				<path style="opacity:0.3;fill:#29ABE2;" d="M167.175,309.488c-0.292,0-0.467-0.243-0.468-0.649
					c-0.002-0.672,0.491-1.526,1.076-1.864c0.155-0.089,0.305-0.136,0.435-0.136c0.292,0,0.466,0.242,0.468,0.648
					c0.002,0.673-0.491,1.527-1.077,1.865C167.455,309.441,167.305,309.488,167.175,309.488z"/>
				<g>
					<path style="fill:#CCCCCC;" d="M162.935,304.773l-2.708-1.59l-0.45-0.265l-0.162-0.095l-1.228-0.722
						c-0.197,0.214-0.368,0.48-0.484,0.755l1.295,0.76l0.16,0.094l0.175,0.103l2.953,1.735c-0.008-0.004-0.015-0.011-0.022-0.017
						c0.058,0.05,0.148,0.053,0.247-0.005c0.176-0.101,0.318-0.348,0.318-0.548C163.027,304.877,162.992,304.807,162.935,304.773z"
						/>
					<path style="opacity:0.5;fill:#CCCCCC;" d="M162.725,306.906c-0.292,0-0.467-0.243-0.468-0.649
						c-0.002-0.672,0.491-1.526,1.076-1.864c0.154-0.089,0.305-0.136,0.435-0.136c0.292,0,0.467,0.242,0.468,0.648
						c0.002,0.673-0.491,1.527-1.077,1.865C163.005,306.859,162.855,306.906,162.725,306.906z"/>
					<path style="fill:#2B325E;" d="M162.728,306.905c-0.094,0-0.176-0.024-0.244-0.072c-0.002,0.003-0.839-0.469-0.839-0.469
						c-0.161-0.094-0.251-0.305-0.251-0.595c-0.002-0.672,0.491-1.526,1.076-1.864c0.154-0.089,0.305-0.136,0.435-0.136
						c0.082,0,0.154,0.018,0.217,0.054l0.863,0.487c0.162,0.093,0.251,0.305,0.252,0.595c0.002,0.673-0.491,1.527-1.077,1.865
						C163.006,306.858,162.857,306.905,162.728,306.905L162.728,306.905z"/>
				</g>
				<path style="opacity:0.3;fill:#29ABE2;" d="M167.178,309.487c-0.094,0-0.176-0.024-0.244-0.072
					c-0.002,0.003-4.425-2.564-4.425-2.564c-0.161-0.094-0.25-0.305-0.251-0.595c-0.002-0.672,0.491-1.526,1.076-1.864
					c0.155-0.089,0.305-0.136,0.435-0.136c0.082,0,0.155,0.018,0.217,0.054l4.449,2.581c0.162,0.093,0.252,0.305,0.252,0.595
					c0.002,0.673-0.491,1.527-1.077,1.865C167.456,309.44,167.307,309.487,167.178,309.487L167.178,309.487z"/>
				<path style="fill:#2B325E;" d="M169.005,308.193l-0.787-0.454l0,0c-0.081-0.049-0.194-0.044-0.319,0.029
					c-0.246,0.142-0.446,0.487-0.445,0.77c0,0.135,0.048,0.229,0.123,0.278l-0.002,0.003l0.009,0.005
					c0.001,0,0.001,0.001,0.002,0.001l0.77,0.444L169.005,308.193z"/>
				<path style="fill:#2EC1FF;" d="M168.678,308.218c0.246-0.142,0.447-0.028,0.448,0.255c0.001,0.283-0.198,0.629-0.445,0.771
					c-0.246,0.142-0.447,0.028-0.448-0.255C168.233,308.705,168.432,308.36,168.678,308.218z"/>
				<g>
					<g>
						<path style="fill:#4D4D4D;" d="M167.782,306.303c-0.199-0.057-0.443-0.011-0.702,0.139c-0.007,0.004-0.015,0.005-0.023,0.005
							c-0.015,0-0.031-0.008-0.039-0.023c-0.013-0.021-0.006-0.049,0.016-0.062c0.193-0.111,0.38-0.17,0.55-0.175L167.782,306.303z"
							/>
						<path style="fill:#4D4D4D;" d="M167.122,305.92c-0.15-0.042-0.327-0.025-0.516,0.05c-0.024,0.01-0.05-0.002-0.059-0.025
							c-0.01-0.024,0.002-0.05,0.025-0.059c0.122-0.049,0.239-0.075,0.35-0.079C166.927,305.807,167.122,305.92,167.122,305.92z"/>
						<path style="fill:#4D4D4D;" d="M166.465,305.537c-0.199-0.054-0.444-0.007-0.698,0.139c-0.007,0.005-0.014,0.006-0.023,0.006
							c-0.015,0-0.031-0.008-0.039-0.023c-0.013-0.022-0.005-0.05,0.016-0.062c0.191-0.11,0.379-0.168,0.55-0.173L166.465,305.537z"
							/>
						<path style="fill:#4D4D4D;" d="M165.796,305.15c-0.148-0.036-0.32-0.018-0.505,0.056c-0.023,0.009-0.05-0.002-0.059-0.025
							c-0.009-0.024,0.002-0.05,0.025-0.059c0.123-0.05,0.24-0.076,0.351-0.08C165.611,305.042,165.796,305.15,165.796,305.15z"/>
						<path style="fill:#4D4D4D;" d="M165.145,304.771c-0.196-0.052-0.438-0.004-0.69,0.142c-0.007,0.004-0.015,0.006-0.023,0.006
							c-0.016,0-0.031-0.007-0.04-0.022c-0.012-0.022-0.005-0.05,0.017-0.063c0.19-0.11,0.376-0.168,0.545-0.174L165.145,304.771z"
							/>
						<path style="fill:#4D4D4D;" d="M164.486,304.387c-0.149-0.038-0.325-0.02-0.51,0.055c-0.023,0.01-0.049-0.002-0.059-0.024
							c-0.009-0.024,0.002-0.05,0.025-0.059c0.122-0.05,0.24-0.077,0.352-0.081C164.296,304.277,164.486,304.387,164.486,304.387z"
							/>
						<path style="fill:#4D4D4D;" d="M163.824,304.004c-0.196-0.048-0.434,0.001-0.681,0.144c-0.007,0.005-0.015,0.006-0.023,0.006
							c-0.016,0-0.031-0.008-0.039-0.023c-0.013-0.022-0.006-0.049,0.016-0.062c0.189-0.108,0.374-0.167,0.542-0.174
							C163.643,303.895,163.824,304.004,163.824,304.004z"/>
						<path style="fill:#4D4D4D;" d="M163.168,303.621c-0.148-0.037-0.321-0.018-0.505,0.057c-0.024,0.009-0.05-0.002-0.059-0.026
							c-0.01-0.023,0.001-0.05,0.025-0.059c0.123-0.049,0.241-0.076,0.353-0.081L163.168,303.621z"/>
						<path style="fill:#4D4D4D;" d="M162.507,303.237c-0.195-0.046-0.431,0.003-0.677,0.146c-0.007,0.004-0.015,0.006-0.023,0.006
							c-0.016,0-0.031-0.008-0.04-0.023c-0.013-0.022-0.005-0.05,0.017-0.063c0.187-0.107,0.37-0.165,0.538-0.172
							C162.324,303.132,162.507,303.237,162.507,303.237z"/>
						<path style="fill:#4D4D4D;" d="M161.848,302.854c-0.146-0.033-0.318-0.014-0.5,0.06c-0.024,0.009-0.05-0.002-0.059-0.025
							c-0.01-0.024,0.002-0.05,0.024-0.06c0.122-0.05,0.239-0.076,0.35-0.082L161.848,302.854z"/>
						<path style="fill:#4D4D4D;" d="M161.189,302.471c-0.194-0.044-0.428,0.006-0.671,0.147c-0.007,0.005-0.014,0.006-0.023,0.006
							c-0.015,0-0.031-0.008-0.039-0.023c-0.013-0.022-0.005-0.049,0.017-0.062c0.187-0.108,0.369-0.167,0.536-0.173
							L161.189,302.471z"/>
					</g>
				</g>
				<g>
					<g>
						<path style="fill:#2B325E;" d="M169.519,309.543l-1.007-0.427c-0.047-0.027-0.073-0.089-0.073-0.174
							c0-0.196,0.143-0.445,0.314-0.544c0.045-0.026,0.089-0.04,0.127-0.04c0.024,0,0.045,0.005,0.063,0.016
							c0.303,0.236,0.801,0.594,0.87,0.686C169.731,309.276,169.68,309.348,169.519,309.543z"/>
						<path style="fill:#2EC1FF;" d="M169.557,309.552c-0.056,0-0.09-0.047-0.09-0.125c0-0.13,0.095-0.294,0.208-0.36
							c0.03-0.017,0.059-0.026,0.084-0.026c0.056,0,0.09,0.047,0.09,0.125c0,0.13-0.095,0.294-0.208,0.36
							C169.611,309.543,169.583,309.552,169.557,309.552z"/>
					</g>
					<g>
						<g style="enable-background:new    ;">
							<path style="fill:#FFFFFF;" d="M169.725,309.225c-0.012-0.007-0.028-0.006-0.046,0.004c-0.036,0.021-0.065,0.071-0.065,0.112
								c0,0.02,0.007,0.035,0.019,0.042l3.617,2.079c0.481,0.176,0.774,0.282,0.968,0.345L169.725,309.225z"/>
						</g>
					</g>
				</g>
			</g>
			<g>
				<path style="fill:#FFFFFF;" d="M175.895,306.913l-0.627,1.068l-15.934-9.346c-0.079-0.047-0.128-0.143-0.128-0.281
					c-0.001-0.279,0.195-0.618,0.437-0.759c0.122-0.07,0.233-0.077,0.313-0.03L175.895,306.913z"/>
				<path style="fill:#2EC1FF;" d="M175.365,308.006c-0.123,0-0.197-0.103-0.198-0.275c-0.001-0.285,0.208-0.646,0.455-0.789
					c0.065-0.038,0.129-0.058,0.184-0.058c0.123,0,0.197,0.103,0.198,0.274c0.001,0.285-0.208,0.646-0.456,0.789
					C175.483,307.986,175.42,308.006,175.365,308.006z"/>
			</g>
			<g>
				<path style="fill:#FFFFFF;" d="M178.612,305.324l-0.627,1.068l-15.934-9.346c-0.079-0.047-0.128-0.143-0.128-0.281
					c-0.001-0.279,0.195-0.618,0.437-0.759c0.122-0.07,0.233-0.077,0.313-0.03L178.612,305.324z"/>
				<path style="fill:#2EC1FF;" d="M178.082,306.417c-0.123,0-0.197-0.103-0.198-0.275c-0.001-0.284,0.208-0.645,0.455-0.788
					c0.065-0.038,0.129-0.058,0.184-0.058c0.123,0,0.197,0.103,0.198,0.274c0.001,0.285-0.208,0.646-0.456,0.789
					C178.2,306.397,178.136,306.417,178.082,306.417z"/>
			</g>
			<g>
				<path style="fill:#FFFFFF;" d="M181.329,303.736l-0.627,1.068l-15.934-9.346c-0.079-0.047-0.128-0.143-0.128-0.281
					c-0.001-0.279,0.195-0.618,0.437-0.759c0.122-0.07,0.233-0.077,0.313-0.03L181.329,303.736z"/>
				<path style="fill:#2EC1FF;" d="M180.798,304.828c-0.123,0-0.197-0.103-0.198-0.275c-0.001-0.284,0.208-0.645,0.455-0.788
					c0.065-0.038,0.129-0.058,0.184-0.058c0.123,0,0.197,0.103,0.198,0.274c0.001,0.285-0.208,0.646-0.456,0.789
					C180.917,304.808,180.853,304.828,180.798,304.828z"/>
			</g>
			<g>
				<path style="fill:#FFFFFF;" d="M184.046,302.147l-0.627,1.068l-15.934-9.346c-0.079-0.047-0.128-0.143-0.128-0.281
					c-0.001-0.279,0.195-0.618,0.437-0.759c0.122-0.07,0.233-0.077,0.313-0.03L184.046,302.147z"/>
				<path style="fill:#2EC1FF;" d="M183.515,303.239c-0.123,0-0.197-0.103-0.198-0.275c-0.001-0.284,0.208-0.646,0.455-0.788
					c0.065-0.038,0.129-0.058,0.184-0.058c0.123,0,0.197,0.103,0.198,0.274c0.001,0.285-0.208,0.646-0.456,0.789
					C183.634,303.22,183.57,303.239,183.515,303.239z"/>
			</g>
		</g>
	</g>
</g>
</svg>
